<svg xmlns="http://www.w3.org/2000/svg" width="151" height="55" viewBox="0 0 151 55">
  <path fill-rule="evenodd" d="M150.23253,97.3053618 L228.759297,97.3053618 L228.759297,96.6164149 L150.23253,96.6164149 L150.23253,97.3053618 Z M248.242715,97.3053618 L263.84886,97.3053618 L263.84886,96.6164149 L248.242715,96.6164149 L248.242715,97.3053618 Z M136.837006,90.4805939 L136.837006,57.2158415 C136.837006,54.8075228 136.612949,53.1480594 136.16723,52.2434422 C135.701143,51.3304378 134.719843,50.6019513 133.22333,50.0495956 L133.22333,49.8159528 L147.733151,49.8159528 L147.733151,50.0495956 C146.218666,50.6019513 145.237366,51.3208524 144.791647,52.2146861 C144.343532,53.0989345 144.120673,54.7679832 144.120673,57.2158415 L144.120673,85.1870855 C144.120673,90.4218837 142.741581,94.3854251 139.983397,97.0848988 C138.623476,98.3765245 137.360606,99.3769952 136.195986,100.094698 C135.020583,100.823185 133.62232,101.522915 132,102.202277 L132,101.921905 C135.224271,99.9101802 136.837006,96.0940134 136.837006,90.4805939 L136.837006,90.4805939 Z M161.728957,74.4071633 C158.183577,74.4071633 156.406693,76.6788908 156.406693,81.223544 C156.406693,83.292781 156.815268,84.7988789 157.620437,85.7502247 C158.43639,86.6931833 159.427275,87.167658 160.591895,87.167658 C161.767299,87.167658 162.971458,86.8381617 164.215157,86.1779708 L164.215157,74.8061535 C163.214686,74.5425564 162.389148,74.4071633 161.728957,74.4071633 L161.728957,74.4071633 Z M149.530404,83.0207968 C149.530404,79.9331165 150.618341,77.5140143 152.802602,75.7862553 C154.989259,74.0465146 158.786255,73.1263212 164.215157,73.0089007 L164.215157,68.9974325 C164.215157,64.1700116 162.26334,61.7616928 158.358509,61.7616928 C156.823655,61.7616928 155.231289,62.1990243 153.590997,63.0832727 C154.774787,63.2677907 155.726133,63.675168 156.465403,64.3149899 C157.203475,64.9464248 157.571312,65.7252343 157.571312,66.6466259 C157.571312,67.5596303 157.221447,68.3767812 156.522915,69.0848988 C155.823185,69.7930164 154.989259,70.1524669 154.017545,70.1524669 C153.036245,70.1524669 152.210706,69.8133853 151.531345,69.1340237 C150.860371,68.4426805 150.521289,67.5883863 150.521289,66.5399889 C150.521289,64.5690017 151.618811,62.9167273 153.803072,61.5963456 C155.98973,60.2651804 158.590954,59.6049895 161.611537,59.6049895 C167.934272,59.6049895 171.091446,63.0341478 171.091446,69.890068 L171.091446,82.5654927 C171.072275,84.6826565 171.344259,86.0701356 171.916984,86.712354 C172.489709,87.3617613 173.490179,87.7511661 174.937567,87.906928 L174.937567,88.1405708 C174.325303,88.7228807 173.353588,89.2752364 172.033206,89.7916471 C169.187556,90.8879712 167.041636,90.8196756 165.575078,89.5879584 C164.856177,88.9457401 164.418845,88.0531045 164.272669,86.9160426 C161.56361,89.4309983 158.942017,90.7022551 156.416278,90.722624 C154.483632,90.722624 152.851727,90.0432624 151.52176,88.6737558 C150.190594,87.3138346 149.530404,85.4291155 149.530404,83.0207968 L149.530404,83.0207968 Z M179.666738,86.8381617 C177.501647,84.2345415 176.423296,80.5441825 176.423296,75.7766699 C176.423296,70.9983739 177.657409,67.1139116 180.113655,64.0933288 C182.579486,61.101502 185.785785,59.6049895 189.748128,59.6049895 C191.962343,59.6049895 193.808721,60.0998331 195.264496,61.0823313 C196.731054,62.0528478 197.45954,63.2390346 197.45954,64.6372973 C197.45954,66.0439471 197.10009,67.1414695 196.381189,67.9382515 C195.652702,68.7362318 194.760067,69.1424109 193.702084,69.1615816 C192.641705,69.1615816 191.739484,68.8224999 190.991827,68.1419402 C190.272926,67.4733621 189.92306,66.6082845 189.943429,65.5778596 C189.943429,63.6943387 190.758184,62.2864907 192.390089,61.3447302 C191.952758,61.1206727 191.311738,61.0044503 190.457444,61.0044503 C185.688733,61.0044503 183.299585,65.1321409 183.299585,73.3875219 C183.299585,77.5930934 184.077196,80.690359 185.630023,82.7008858 C187.174462,84.7114126 189.165818,85.7118833 191.593307,85.7118833 C194.021995,85.7118833 196.148744,84.7988789 197.974753,82.9812572 L198.256322,83.2149001 C196.002568,88.1992811 192.565022,90.7022551 187.96046,90.7228612 C184.591211,90.7429929 181.823441,89.4513672 179.666738,86.8381617 L179.666738,86.8381617 Z M229.218195,90.0228936 L222.284394,90.0228936 C220.379306,90.0228936 219.079293,89.7329368 218.379563,89.1410416 C217.679832,88.5563353 216.593093,86.9459968 215.106166,84.3028371 L209.707219,74.6216355 L213.717489,69.7355043 C215.931704,67.0540032 217.038812,65.1800676 217.038812,64.0933288 C217.038812,62.538106 215.874192,61.3938551 213.542556,60.6545851 L213.542556,60.3047199 L227.993667,60.3047199 L227.993667,60.5958749 C226.401301,60.9744961 224.896401,61.6454705 223.47777,62.6171852 C222.050751,63.5877017 220.428431,65.1021867 218.613206,67.1714237 L215.164877,70.9588344 L222.817579,83.4485429 C224.206256,85.6627584 225.352903,87.1880269 226.26471,88.0231503 C227.169327,88.8582738 228.159014,89.4513672 229.218195,89.7916471 L229.218195,90.0228936 Z M211.794429,90.0228936 L199.150156,90.0228936 L199.150156,89.7916471 C200.354316,89.2380932 201.111558,88.5563353 201.421884,87.7415807 C201.733408,86.925628 201.887971,85.0900338 201.887971,82.2252129 L201.887971,56.274081 C201.887971,54.5151697 201.822072,53.1624374 201.687877,52.2170825 L202.465488,53.0617913 L208.939193,60.1070221 L208.939193,82.2252129 C208.920022,85.1104027 209.075784,86.9459968 209.414866,87.7415807 C209.74556,88.5383628 210.541144,89.2165262 211.794429,89.7916471 L211.794429,90.0228936 Z M228.305191,60.3047199 L241.426334,60.3047199 L241.426334,60.5958749 C240.492961,60.8582738 239.842355,61.236895 239.464932,61.7317386 C239.076726,62.2277804 238.900595,63.0437332 238.919766,64.1795969 C238.919766,65.3166588 239.347512,67.5500449 240.203004,70.8905387 L244.127006,85.8281056 L247.757456,72.5512003 C248.835808,69.0261885 249.311481,66.306346 249.176088,64.4132398 C249.039497,62.50935 248.127691,61.236895 246.417904,60.5958749 L246.417904,60.3047199 L255.974496,60.3047199 L255.974496,60.539561 C254.935684,61.0332064 253.954384,62.1319269 253.050965,63.8405152 C252.139159,65.5491035 250.981728,68.8416706 249.57388,73.7170183 L243.863409,93.637768 C241.882836,100.552398 239.076726,104.009115 235.453464,104.009115 C234.20018,104.009115 233.161368,103.640079 232.326244,102.903205 C231.489923,102.163935 231.07296,101.309641 231.07296,100.318756 C231.07296,99.3386538 231.403654,98.4735761 232.073431,97.7163336 C232.733621,96.9770636 233.587916,96.6080277 234.627926,96.6080277 C235.675125,96.6080277 236.530617,96.9686765 237.190808,97.6863794 C237.852197,98.4052805 238.221233,99.3278703 238.299114,100.464932 C239.745304,99.2499893 241.009371,96.8608413 242.086525,93.2974881 L242.989944,89.9953357 L238.862253,90.0336771 L233.850315,72.434978 C232.452052,67.6183405 231.441996,64.5486328 230.840515,63.2390346 C230.228251,61.9378236 229.382344,61.0332064 228.305191,60.539561 L228.305191,60.3047199 Z M259.67444,57.5069964 C259.67444,56.8863452 259.344944,56.1279045 258.684753,55.2352689 C258.023364,54.3426334 257.693868,53.4284308 257.693868,52.4962557 C257.693868,51.573666 258.042535,50.7589114 258.742265,50.0495956 C259.441996,49.3498652 260.345415,49 261.442937,49 C262.521289,49 263.413924,49.3882066 264.132826,50.1646198 C264.851727,50.9422312 265.211177,51.9427019 265.211177,53.1576447 C265.211177,54.9345286 264.374856,56.8276349 262.715392,58.818991 C261.045145,60.8091489 259.217938,62.431469 257.22778,63.6859515 L257.004921,63.568531 C258.781805,61.314776 259.67444,59.2946639 259.67444,57.5069964 L259.67444,57.5069964 Z M272.485258,88.916984 C273.757713,88.916984 274.825281,88.5383628 275.699944,87.7811203 C276.574607,87.032265 277.010741,85.9551115 277.010741,84.5568488 C277.010741,83.1382173 276.554239,81.9712012 275.642432,81.0689803 C274.739013,80.1667594 273.630707,79.389148 272.348667,78.7481279 C271.05824,78.1071077 269.746245,77.4181608 268.416278,76.6788908 C267.134238,75.9312337 266.02713,74.8924216 265.123711,73.5420857 C264.210706,72.2025333 263.744619,70.5993838 263.725448,68.7362318 C263.705079,66.0259746 264.627669,63.8309299 266.482434,62.1415123 C268.347982,60.4496983 270.649664,59.6049895 273.398263,59.6049895 C275.399204,59.6049895 277.670932,60.0914459 280.215841,61.0511789 L280.215841,68.4055373 L279.983397,68.4055373 C277.389362,63.7434636 274.893577,61.4118276 272.485258,61.4118276 C271.368565,61.4118276 270.425607,61.7616928 269.669562,62.4602251 C268.911122,63.1599555 268.522915,64.1328683 268.502546,65.3741709 C268.502546,67.4733621 270.105696,69.2981728 273.310796,70.842612 C274.661132,71.482434 275.991099,72.1917498 277.322265,72.9693611 C278.661817,73.7457743 279.788095,74.8444948 280.691514,76.2415593 C281.594933,77.6518037 282.061021,79.3208524 282.080192,81.2546964 C282.099362,84.1482734 281.148017,86.4595404 279.215371,88.1585434 C277.29231,89.8683298 274.834867,90.722624 271.853823,90.722624 C268.882366,90.722624 266.162523,90.1211434 263.725448,88.916984 L263.608028,80.3896187 L263.899183,80.3896187 C266.658565,86.0701356 269.523386,88.916984 272.485258,88.916984 L272.485258,88.916984 Z" transform="translate(-132 -49)"/>
</svg>
