<svg xmlns="http://www.w3.org/2000/svg" width="728" height="64" viewBox="0 0 728 64">
  <path fill="#9E9E9E" d="M1081.78427,158.727853 C1081.14999,152.983764 1078.25691,147.728326 1073.74578,144.120067 C1068.46121,140.013447 1061.88221,137.939103 1055.19641,138.269186 C1047.10615,137.939103 1039.278,141.181682 1033.78957,147.136118 C1028.17492,153.663346 1025.2786,162.099877 1025.6993,170.701449 C1025.2333,179.09591 1028.11667,187.335039 1033.7119,193.60985 C1038.75375,199.130648 1045.95733,202.175825 1053.43273,201.942825 C1057.74646,202.085214 1062.01489,201.023771 1065.75583,198.874996 C1068.2444,197.208401 1070.46436,195.166417 1072.3316,192.823476 L1073.60339,200.383022 L1081.98491,200.383022 L1081.98491,167.892508 L1056.74327,167.892508 L1056.74327,177.99887 L1070.7815,177.99887 C1070.28962,181.68156 1068.51299,185.073 1065.76877,187.574511 C1062.88217,190.076021 1059.15094,191.380172 1055.33556,191.228075 C1051.02183,191.234548 1046.86991,189.574425 1043.7503,186.59397 C1040.35239,183.503488 1038.65343,178.241578 1038.65343,170.808241 C1038.20685,164.895873 1039.87668,159.019103 1043.35873,154.223193 C1046.30359,150.637586 1050.73706,148.611783 1055.3744,148.721811 C1057.75617,148.68945 1060.125,149.152213 1062.31908,150.07774 C1065.9597,151.61489 1068.5939,154.867178 1069.34467,158.74727 L1081.78427,158.74727 L1081.78427,158.727853 Z M988.464651,139.819281 L959.498258,139.819281 L959.498258,200.389494 L971.866659,200.389494 L971.866659,176.642941 L984.225351,176.642941 C986.788348,176.354928 989.361053,177.050691 991.432162,178.584606 C993.004909,180.836936 993.716853,183.577919 993.435312,186.309193 L993.516214,191.936783 C993.538867,193.687517 993.720089,195.431778 994.050172,197.153387 C994.211977,197.975358 994.487046,199.052982 994.872143,200.389494 L1008.83918,200.389494 L1008.83918,198.868524 C1007.59975,198.108039 1006.74866,196.849193 1006.50271,195.418834 C1006.22117,193.554836 1006.11438,191.671422 1006.1791,189.791244 L1006.1791,185.720221 C1006.37974,182.467934 1005.78106,179.218883 1004.43484,176.251372 C1003.0692,174.018459 1000.96897,172.325975 998.496583,171.46517 C1001.58059,170.526699 1004.16624,168.407049 1005.68721,165.568984 C1007.09492,162.960681 1007.84246,160.048185 1007.86511,157.083911 C1007.90071,154.909247 1007.52209,152.744292 1006.74218,150.715253 C1006.00111,148.867436 1004.97527,147.145827 1003.69701,145.62162 C1002.16956,143.777039 1000.2279,142.327264 998.027347,141.388793 C994.96599,140.282044 991.726647,139.754559 988.47436,139.828989 L988.464651,139.819281 Z M985.833697,150.336628 C987.843319,150.216892 989.849705,150.582572 991.687814,151.404544 C994.17638,152.993472 995.529073,155.870371 995.160157,158.799048 C995.487003,161.595044 994.063116,164.303666 991.571314,165.617525 C989.632886,166.371538 987.558542,166.704857 985.484197,166.588357 L971.866659,166.588357 L971.866659,150.349573 L985.833697,150.349573 L985.833697,150.336628 Z M938.084939,139.819281 L894.348954,139.819281 L894.348954,200.389494 L939.58002,200.389494 L939.58002,189.499994 L906.710882,189.499994 L906.710882,173.931084 L935.470164,173.931084 L935.470164,163.413736 L906.710882,163.413736 L906.710882,150.553447 L938.101119,150.553447 L938.101119,139.832225 L938.084939,139.819281 Z M853.499576,139.819281 L824.235461,139.819281 L824.235461,200.389494 L851.519079,200.389494 C854.392742,200.408911 857.259932,200.133842 860.078581,199.567523 C864.728867,198.664649 868.777237,195.826583 871.207553,191.762033 C873.016537,188.868953 873.951772,185.519583 873.90323,182.108726 C874.000313,178.982647 873.178342,175.898637 871.544108,173.235321 C869.877513,170.724102 867.414836,168.843924 864.550881,167.895744 C866.308087,167.064065 867.877599,165.889358 869.172042,164.439582 C871.139595,161.896002 872.136316,158.734326 871.977747,155.524108 C872.061885,152.223279 871.091053,148.983936 869.197931,146.281786 C866.117157,142.091028 860.884372,139.942253 853.502812,139.832225 L853.499576,139.819281 Z M851.234301,173.714265 C853.302174,173.64307 855.357101,173.99257 857.285821,174.740111 C859.826165,175.856567 861.37626,178.46487 861.143261,181.231741 C861.486288,184.328695 859.907068,187.318858 857.162849,188.791287 C855.214713,189.597077 853.117715,189.959521 851.014246,189.859202 L836.312612,189.859202 L836.312612,173.723973 L851.218121,173.723973 L851.234301,173.714265 Z M849.502984,150.336628 C851.923592,150.26867 854.337728,150.589045 856.658016,151.281571 C858.848861,152.229751 860.16272,154.498262 859.894123,156.870328 C860.114179,158.960853 859.169235,161.002837 857.434682,162.190488 C855.476837,163.268112 853.26334,163.785889 851.030426,163.688805 L836.312612,163.688805 L836.312612,150.349573 L849.486803,150.349573 L849.502984,150.336628 Z M754.820968,181.68156 C754.568551,187.451539 757.12184,192.988518 761.671806,196.544999 C767.147299,200.425091 773.781318,202.327922 780.483296,201.946061 C786.98787,202.357047 793.424487,200.408911 798.605494,196.46086 C802.744475,193.095309 805.113305,188.014621 805.019458,182.678281 C805.304236,177.92444 803.291377,173.325932 799.605451,170.313116 C796.466428,168.122272 792.893766,166.623954 789.133409,165.918483 L778.506034,163.413736 C775.739163,162.892723 773.037013,162.051335 770.461072,160.90899 C768.600311,160.022296 767.441785,158.116229 767.512979,156.054829 C767.451493,153.815443 768.593839,151.718446 770.503142,150.553447 C772.920514,149.126324 775.703566,148.443506 778.506034,148.582658 C781.101392,148.49852 783.683805,149.019533 786.042927,150.103629 C789.020146,151.546932 790.916504,154.559748 790.929449,157.870285 L803.090738,157.870285 C803.191058,152.09707 800.527742,146.62805 795.919526,143.149235 C791.117143,139.6866 785.305095,137.897033 779.386255,138.065311 C773.059666,137.612256 766.784855,139.528031 761.794778,143.446957 C757.888797,146.838397 755.69148,151.78964 755.804744,156.964175 C755.419647,162.099877 757.739936,167.067301 761.927458,170.070408 C766.050259,172.37128 770.535503,173.944028 775.195497,174.714222 L781.764794,176.157525 C784.699943,176.662358 787.538009,177.61701 790.178672,178.992355 C791.854975,179.92759 792.877585,181.717157 792.829043,183.636168 C792.909946,186.962886 790.65438,189.891563 787.418273,190.661757 C785.010609,191.383408 782.505862,191.713491 779.991407,191.632589 C776.02394,192.050046 772.072654,190.681173 769.211935,187.894885 C767.891603,186.076193 767.092285,183.930654 766.904591,181.691268 L754.82744,181.691268 L754.820968,181.68156 Z M717.181808,139.819281 L688.215415,139.819281 L688.215415,200.389494 L700.570871,200.389494 L700.570871,176.642941 L712.929563,176.642941 C715.49256,176.354928 718.065265,177.050691 720.136374,178.584606 C721.709122,180.8337 722.421065,183.577919 722.139524,186.309193 L722.220426,191.936783 C722.243079,193.687517 722.424301,195.431778 722.754384,197.153387 C722.919426,197.975358 723.194495,199.052982 723.576355,200.389494 L737.543393,200.389494 L737.543393,198.868524 C736.303964,198.104803 735.452868,196.849193 735.206924,195.418834 C734.925382,193.554836 734.818591,191.671422 734.883313,189.791244 L734.883313,185.720221 C735.083951,182.467934 734.485272,179.218883 733.139051,176.251372 C731.773414,174.018459 729.673181,172.325975 727.200795,171.46517 C730.284805,170.526699 732.870454,168.407049 734.391425,165.568984 C735.799131,162.960681 736.546672,160.048185 736.569325,157.083911 C736.604922,154.909247 736.226297,152.744292 735.446395,150.715253 C734.705327,148.867436 733.679481,147.145827 732.401219,145.62162 C730.877012,143.777039 728.935348,142.324027 726.731559,141.388793 C723.670202,140.282044 720.430859,139.754559 717.178572,139.828989 L717.181808,139.819281 Z M714.550853,150.336628 C716.560475,150.216892 718.566862,150.582572 720.40497,151.404544 C722.896773,152.996708 724.246229,155.880079 723.870841,158.811992 C724.197688,161.607989 722.773801,164.31661 720.281998,165.63047 C718.346806,166.387719 716.269226,166.717801 714.194881,166.601302 L700.570871,166.601302 L700.570871,150.349573 L714.537909,150.349573 L714.550853,150.336628 Z M666.805331,139.819281 L623.04993,139.819281 L623.04993,200.389494 L668.284232,200.389494 L668.284232,189.499994 L635.415094,189.499994 L635.415094,173.931084 L664.174377,173.931084 L664.174377,163.413736 L635.415094,163.413736 L635.415094,150.553447 L666.805331,150.553447 L666.805331,139.832225 L666.805331,139.819281 Z M604.41319,159.006159 C604.863009,153.618041 602.905164,148.310825 599.067141,144.505164 C595.02848,141.220515 589.915431,139.557156 584.718243,139.832225 L558.729068,139.832225 L558.729068,200.389494 L571.301344,200.389494 L571.301344,178.613731 L583.922161,178.613731 C589.349112,178.969702 594.727522,177.396954 599.109211,174.177028 C602.652748,171.219226 604.426134,166.164427 604.426134,159.015867 L604.41319,159.006159 Z M591.837678,159.100006 C592.064206,161.637114 591.187221,164.151569 589.433251,166.002622 C587.543365,167.552717 585.138937,168.332619 582.698912,168.180522 L571.301344,168.180522 L571.301344,150.349573 L582.705385,150.349573 C585.116284,150.200712 587.504531,150.912655 589.439723,152.362431 C591.209874,154.135818 592.090095,156.608203 591.837678,159.100006 L591.837678,159.100006 Z M540.131162,159.006159 C540.577745,153.621277 538.6199,148.317298 534.785113,144.514872 C530.752924,141.230223 525.643111,139.563628 520.44916,139.832225 L494.447041,139.832225 L494.447041,200.389494 L507.019316,200.389494 L507.019316,178.613731 L519.640133,178.613731 C525.067084,178.969702 530.445494,177.396954 534.827183,174.177028 C538.37072,171.219226 540.144106,166.164427 540.144106,159.015867 L540.131162,159.006159 Z M527.558887,159.100006 C527.785414,161.637114 526.908429,164.151569 525.154459,166.002622 C523.264573,167.552717 520.860145,168.332619 518.420121,168.180522 L507.019316,168.180522 L507.019316,150.349573 L518.423357,150.349573 C520.837493,150.200712 523.222503,150.912655 525.157695,152.362431 C526.927846,154.132582 527.811303,156.608203 527.562123,159.100006 L527.558887,159.100006 Z M423.744576,177.053927 C423.47598,182.234934 424.505062,187.402997 426.737975,192.08888 C430.482151,198.661413 437.595114,201.949298 448.067156,201.949298 C458.542434,201.949298 465.639217,198.661413 469.354267,192.08888 C471.587181,187.402997 472.616263,182.234934 472.347666,177.053927 L472.347666,139.832225 L459.480905,139.832225 L459.480905,177.021566 C459.668599,180.131465 459.167003,183.2446 458.00524,186.134443 C456.477798,189.529119 453.164024,191.224839 448.057448,191.224839 C442.954107,191.224839 439.620917,189.529119 438.067586,186.134443 C436.909059,183.2446 436.404227,180.131465 436.595157,177.021566 L436.595157,139.832225 L423.747813,139.832225 L423.747813,177.047455 L423.744576,177.053927 Z M354,200.389494 L366.449303,200.389494 L366.449303,180.134701 L372.542893,173.953737 L391.199049,200.389494 L407.470195,200.389494 L381.34834,164.737304 L406.198405,139.819281 L389.846356,139.819281 L366.449303,164.769665 L366.449303,139.832225 L354,139.832225 L354,200.389494 Z" opacity=".119" transform="translate(-354 -138)"/>
</svg>
