<svg xmlns="http://www.w3.org/2000/svg" width="295" height="64" viewBox="0 0 295 64">
  <g fill="none">
    <rect width="295" height="64" fill="#C61308"/>
    <g fill="#FFF" opacity=".4" transform="translate(4 .848)">
      <g opacity=".2" transform="translate(208 5.152)">
        <ellipse cx="28.21" cy="27.596" rx="19.032" ry="21.711"/>
        <ellipse cx="28.189" cy="27.614" rx="21.731" ry="19.013" transform="rotate(-27.162 28.19 27.614)"/>
        <ellipse cx="28.239" cy="27.883" rx="19.011" ry="23.571" transform="rotate(-74.342 28.239 27.883)"/>
      </g>
      <g opacity=".2" transform="translate(164 .152)">
        <ellipse cx="29.441" cy="27.294" rx="22.095" ry="19.057" transform="rotate(-84.564 29.441 27.294)"/>
        <ellipse cx="29.405" cy="27.307" rx="21.808" ry="19.307" transform="rotate(-21.729 29.405 27.307)"/>
        <ellipse cx="29.392" cy="27.5" rx="19.311" ry="23.648" transform="rotate(-68.906 29.392 27.5)"/>
      </g>
      <g opacity=".2" transform="translate(152 14.152)">
        <ellipse cx="20.612" cy="18.708" rx="15.298" ry="13.374" transform="rotate(-84.565 20.612 18.708)"/>
        <ellipse cx="20.593" cy="18.71" rx="15.322" ry="13.352" transform="rotate(-21.729 20.593 18.71)"/>
        <ellipse cx="20.635" cy="18.87" rx="13.352" ry="16.591" transform="rotate(-68.906 20.635 18.87)"/>
      </g>
      <g opacity=".2" transform="translate(193 .152)">
        <ellipse cx="14.148" cy="12.877" rx="10.015" ry="8.786" transform="rotate(-84.565 14.148 12.877)"/>
        <ellipse cx="14.178" cy="12.893" rx="10.037" ry="8.766" transform="rotate(-21.729 14.178 12.893)"/>
        <ellipse cx="14.148" cy="12.97" rx="8.766" ry="10.907" transform="rotate(-68.906 14.148 12.97)"/>
      </g>
      <g opacity=".2" transform="translate(237 .152)">
        <ellipse cx="13.74" cy="12.959" rx="10.015" ry="8.786" transform="rotate(-84.565 13.74 12.96)"/>
        <ellipse cx="13.698" cy="12.928" rx="10.037" ry="8.766" transform="rotate(-21.729 13.698 12.928)"/>
        <ellipse cx="13.72" cy="13.046" rx="8.766" ry="10.907" transform="rotate(-68.906 13.72 13.046)"/>
      </g>
      <g opacity=".3" transform="translate(120 27.152)">
        <ellipse cx="13.493" cy="12.876" opacity=".2" rx="10.015" ry="8.775" transform="rotate(-84.565 13.493 12.876)"/>
        <ellipse cx="13.496" cy="12.897" opacity=".2" rx="10.026" ry="8.764" transform="rotate(-21.729 13.496 12.897)"/>
        <ellipse cx="13.483" cy="12.973" opacity=".2" rx="8.765" ry="10.895" transform="rotate(-68.906 13.483 12.973)"/>
      </g>
      <g opacity=".3" transform="translate(218 38.152)">
        <path d="M1.7,5.7 C1.4,8.9 3.4,11.7 6.2,11.9 C9,12.2 11.5,9.8 11.8,6.6 C12.1,3.4 10.1,0.6 7.3,0.4 C4.5,0.1 2,2.5 1.7,5.7 Z" opacity=".2"/>
        <path d="M4.9,1.5 C1.9,2.7 0.4,5.8 1.4,8.4 C2.4,11 5.7,12.1 8.7,11 C11.7,9.8 13.2,6.7 12.2,4.1 C11.1,1.4 7.9,0.3 4.9,1.5 Z" opacity=".2"/>
        <path d="M8.6,1.5 C5.4,0.3 1.9,1.4 0.9,4 C-0.1,6.6 1.7,9.7 4.9,11 C8.1,12.2 11.6,11.1 12.6,8.5 C13.6,5.9 11.8,2.7 8.6,1.5 Z" opacity=".2"/>
      </g>
      <g opacity=".3" transform="translate(204 47.152)">
        <path d="M1.6,5.6 C1.3,8.8 3.3,11.6 6.1,11.8 C8.9,12.1 11.4,9.7 11.7,6.5 C12,3.3 10,0.5 7.2,0.3 C4.4,0 1.9,2.4 1.6,5.6 Z" opacity=".2"/>
        <path d="M4.8,1.4 C1.8,2.6 0.3,5.7 1.3,8.3 C2.3,10.9 5.6,12 8.6,10.9 C11.6,9.7 13.1,6.6 12.1,4 C11,1.3 7.8,0.2 4.8,1.4 Z" opacity=".2"/>
        <path d="M8.5,1.4 C5.3,0.2 1.8,1.3 0.8,3.9 C-0.2,6.5 1.6,9.6 4.8,10.9 C8,12.1 11.5,11 12.5,8.4 C13.5,5.8 11.7,2.7 8.5,1.4 Z" opacity=".2"/>
      </g>
      <g opacity=".3" transform="translate(212 30.152)">
        <ellipse cx="8.28" cy="7.903" opacity=".2" rx="5.8" ry="5.1" transform="rotate(-84.565 8.28 7.903)"/>
        <ellipse cx="8.208" cy="7.913" opacity=".2" rx="5.8" ry="5.1" transform="rotate(-21.729 8.208 7.913)"/>
        <ellipse cx="8.209" cy="7.944" opacity=".2" rx="5.1" ry="6.3" transform="rotate(-68.906 8.21 7.944)"/>
      </g>
      <g opacity=".2" transform="translate(126 35.152)">
        <ellipse cx="13.891" cy="12.736" rx="10" ry="8.786" transform="rotate(-84.565 13.89 12.736)"/>
        <path d="M10.6206897,4.61538462 C5.40689655,6.63461538 2.70344828,12.0192308 4.53793103,16.4423077 C6.37241379,20.9615385 11.9724138,22.9807692 17.1862069,20.8653846 C22.4,18.8461538 25.1034483,13.4615385 23.2689655,9.03846154 C21.4344828,4.51923077 15.737931,2.59615385 10.6206897,4.61538462 Z"/>
        <ellipse cx="13.886" cy="12.837" rx="8.755" ry="10.905" transform="rotate(-68.906 13.886 12.837)"/>
      </g>
      <g opacity=".6" transform="translate(238 37.152)">
        <ellipse cx="13.432" cy="12.491" opacity=".2" rx="10" ry="8.775" transform="rotate(-84.565 13.432 12.49)"/>
        <path d="M10.125,4.32692308 C4.91785714,6.34615385 2.21785714,11.7307692 4.05,16.1538462 C5.88214286,20.6730769 11.475,22.6923077 16.6821429,20.5769231 C21.8892857,18.5576923 24.5892857,13.1730769 22.7571429,8.75 C20.925,4.23076923 15.3321429,2.30769231 10.125,4.32692308 Z" opacity=".2"/>
        <ellipse cx="13.417" cy="12.588" opacity=".2" rx="8.753" ry="10.893" transform="rotate(-68.906 13.417 12.588)"/>
      </g>
      <g opacity=".7" transform="translate(157 3.152)">
        <ellipse cx="21.14" cy="19.159" opacity=".2" rx="15.698" ry="13.772" transform="rotate(-84.564 21.14 19.159)"/>
        <ellipse cx="21.107" cy="19.202" opacity=".2" rx="15.721" ry="13.75" transform="rotate(-21.729 21.107 19.202)"/>
        <ellipse cx="21.068" cy="19.299" opacity=".2" rx="13.751" ry="17.089" transform="rotate(-68.906 21.068 19.299)"/>
      </g>
      <g opacity=".6" transform="translate(139 .152)">
        <ellipse cx="13.857" cy="12.155" opacity=".2" rx="10" ry="8.786" transform="rotate(-84.565 13.857 12.155)"/>
        <path d="M10.6206897,4.03846154 C5.40689655,6.05769231 2.70344828,11.4423077 4.53793103,15.8653846 C6.37241379,20.2884615 11.9724138,22.4038462 17.1862069,20.2884615 C22.4,18.2692308 25.1034483,12.8846154 23.2689655,8.46153846 C21.4344828,3.94230769 15.8344828,1.92307692 10.6206897,4.03846154 Z" opacity=".2"/>
        <ellipse cx="13.937" cy="12.27" opacity=".2" rx="8.755" ry="10.905" transform="rotate(-68.906 13.937 12.27)"/>
      </g>
      <g opacity=".6" transform="translate(265 2.152)">
        <path d="M3.61,8.2 C3.23,12.1 5.605,15.6 8.835,15.9 C12.065,16.2 15.01,13.3 15.39,9.4 C15.77,5.5 13.395,2 10.165,1.7 C6.935,1.4 3.99,4.3 3.61,8.2 Z" opacity=".2"/>
        <path d="M7.315,3 C3.8,4.5 1.995,8.2 3.23,11.4 C4.465,14.6 8.265,16 11.685,14.6 C15.2,13.1 17.005,9.4 15.77,6.2 C14.63,2.9 10.83,1.5 7.315,3 Z" opacity=".2"/>
        <ellipse cx="9.548" cy="8.91" opacity=".2" rx="6.161" ry="7.366" transform="rotate(-68.906 9.548 8.91)"/>
      </g>
      <g opacity=".6" transform="translate(150 13.152)">
        <path d="M3.12631579,7.7 C2.74736842,11.6 5.11578947,15.1 8.33684211,15.4 C11.5578947,15.7 14.4947368,12.8 14.8736842,8.9 C15.2526316,5 12.8842105,1.5 9.66315789,1.2 C6.34736842,0.9 3.41052632,3.8 3.12631579,7.7 Z" opacity=".2"/>
        <ellipse cx="8.98" cy="8.292" opacity=".2" rx="6.778" ry="6.156" transform="rotate(-21.729 8.98 8.292)"/>
        <path d="M11.0842105,2.6 C7.29473684,1.1 3.31578947,2.4 2.08421053,5.6 C0.947368421,8.8 3.03157895,12.7 6.82105263,14.2 C10.6105263,15.7 14.5894737,14.4 15.8210526,11.2 C16.9578947,8 14.8736842,4.1 11.0842105,2.6 Z" opacity=".2"/>
      </g>
      <g opacity=".6" transform="translate(148 37.152)">
        <ellipse cx="14.202" cy="12.205" opacity=".2" rx="10" ry="8.786" transform="rotate(-84.565 14.202 12.205)"/>
        <path d="M10.9103448,4.03846154 C5.69655172,6.05769231 2.99310345,11.4423077 4.82758621,15.8653846 C6.66206897,20.3846154 12.262069,22.4038462 17.4758621,20.2884615 C22.6896552,18.2692308 25.3931034,12.8846154 23.5586207,8.46153846 C21.7241379,3.94230769 16.1241379,2.01923077 10.9103448,4.03846154 Z" opacity=".2"/>
        <ellipse cx="14.19" cy="12.302" opacity=".2" rx="8.755" ry="10.905" transform="rotate(-68.906 14.19 12.302)"/>
      </g>
      <g opacity=".2" transform="translate(225 4.152)">
        <ellipse cx="12.996" cy="12.062" rx="9.984" ry="8.763" transform="rotate(-84.564 12.996 12.062)"/>
        <ellipse cx="12.979" cy="12.017" rx="10.01" ry="8.739" transform="rotate(-21.729 12.98 12.017)"/>
        <path d="M16.1777778,3.936 C10.5925926,1.824 4.62222222,3.648 2.88888889,8.256 C1.15555556,12.768 4.23703704,18.144 9.91851852,20.352 C15.5037037,22.464 21.4740741,20.64 23.2074074,16.032 C24.9407407,11.52 21.762963,6.144 16.1777778,3.936 Z"/>
      </g>
      <g opacity=".2" transform="translate(117 11.152)">
        <ellipse cx="13.967" cy="12.413" rx="10" ry="8.786" transform="rotate(-84.564 13.967 12.413)"/>
        <ellipse cx="13.923" cy="12.417" rx="10.036" ry="8.755" transform="rotate(-21.727 13.923 12.417)"/>
        <ellipse cx="13.943" cy="12.512" rx="8.755" ry="10.905" transform="rotate(-68.906 13.943 12.513)"/>
      </g>
      <g opacity=".5" transform="translate(165 1.152)">
        <path d="M1,3.1 C0.8,4.7 1.9,6.2 3.3,6.3 C4.7,6.4 6,5.2 6.2,3.6 C6.4,2 5.3,0.5 3.9,0.4 C2.5,0.2 1.2,1.4 1,3.1 Z" opacity=".2"/>
        <path d="M2.7,0.9 C1.2,1.5 0.4,3.1 0.9,4.4 C1.4,5.7 3.1,6.3 4.6,5.7 C6.1,5.1 6.9,3.5 6.4,2.2 C5.8,0.9 4.2,0.3 2.7,0.9 Z" opacity=".2"/>
        <path d="M4.5,0.9 C2.8,0.3 1.1,0.8 0.6,2.2 C0.1,3.5 1,5.1 2.7,5.8 C4.4,6.4 6.1,5.9 6.6,4.5 C7.1,3.2 6.2,1.6 4.5,0.9 Z" opacity=".2"/>
      </g>
      <g opacity=".2" transform="translate(279 20.152)">
        <path d="M1.1,3.4 C0.9,5 2,6.5 3.4,6.6 C4.8,6.7 6.1,5.5 6.3,3.9 C6.5,2.3 5.4,0.8 4,0.7 C2.5,0.5 1.2,1.7 1.1,3.4 Z"/>
        <path d="M2.7,1.2 C1.2,1.8 0.4,3.4 0.9,4.7 C1.4,6 3.1,6.6 4.6,6 C6.1,5.4 6.9,3.8 6.4,2.5 C5.9,1.2 4.2,0.6 2.7,1.2 Z"/>
        <path d="M4.6,1.2 C2.9,0.6 1.2,1.1 0.7,2.5 C0.2,3.8 1.1,5.4 2.8,6.1 C4.5,6.7 6.2,6.2 6.7,4.8 C7.2,3.5 6.2,1.9 4.6,1.2 Z"/>
      </g>
      <g opacity=".2" transform="translate(180 52.152)">
        <path d="M1,3.4 C0.8,5 1.9,6.5 3.3,6.6 C4.7,6.7 6,5.5 6.2,3.9 C6.4,2.3 5.3,0.8 3.9,0.7 C2.5,0.5 1.2,1.8 1,3.4 Z"/>
        <path d="M2.6,1.2 C1.1,1.8 0.3,3.4 0.8,4.7 C1.3,6 3,6.6 4.5,6 C6,5.4 6.8,3.8 6.3,2.5 C5.8,1.2 4.2,0.6 2.6,1.2 Z"/>
        <path d="M4.5,1.2 C2.8,0.6 1.1,1.1 0.6,2.5 C0.1,3.8 1,5.4 2.7,6.1 C4.4,6.7 6.1,6.2 6.6,4.8 C7.1,3.5 6.2,1.9 4.5,1.2 Z"/>
      </g>
      <g opacity=".2" transform="translate(111 .152)">
        <path d="M1.3,3.5 C1.1,5.1 2.2,6.6 3.6,6.7 C5,6.8 6.3,5.6 6.5,4 C6.7,2.4 5.6,0.9 4.2,0.8 C2.7,0.7 1.5,1.9 1.3,3.5 Z"/>
        <path d="M2.9,1.3 C1.4,1.9 0.6,3.5 1.1,4.8 C1.6,6.1 3.3,6.7 4.8,6.1 C6.3,5.5 7.1,3.9 6.6,2.6 C6.1,1.3 4.4,0.7 2.9,1.3 Z"/>
        <path d="M4.8,1.4 C3.1,0.8 1.4,1.3 0.9,2.7 C0.4,4 1.3,5.6 3,6.3 C4.7,6.9 6.4,6.4 6.9,5 C7.4,3.6 6.5,2 4.8,1.4 Z"/>
      </g>
      <g opacity=".2" transform="translate(265 26.152)">
        <path d="M1.3,3.7 C1.1,5.3 2.2,6.8 3.6,6.9 C5,7 6.3,5.8 6.5,4.2 C6.7,2.6 5.6,1.1 4.2,1 C2.8,0.9 1.5,2.1 1.3,3.7 Z"/>
        <path d="M2.9,1.6 C1.4,2.2 0.6,3.8 1.1,5.1 C1.6,6.4 3.3,7 4.8,6.4 C6.3,5.8 7.1,4.2 6.6,2.9 C6.1,1.5 4.5,1 2.9,1.6 Z"/>
        <path d="M4.8,1.6 C3.1,1 1.4,1.5 0.9,2.9 C0.4,4.2 1.3,5.8 3,6.5 C4.7,7.1 6.4,6.6 6.9,5.2 C7.4,3.8 6.5,2.2 4.8,1.6 Z"/>
      </g>
      <path d="M158 54.1518152C156.666667 54.1518152 156.666667 52.1518152 158 52.1518152 159.333333 52.2518152 159.333333 54.1518152 158 54.1518152L158 54.1518152zM122 8.15181518C120.666667 8.15181518 120.666667 6.15181518 122 6.15181518 123.333333 6.15181518 123.333333 8.15181518 122 8.15181518L122 8.15181518zM173.04 17.1518152C171.653333 17.1518152 171.653333 15.1518152 173.04 15.1518152 174.32 15.1518152 174.32 17.1518152 173.04 17.1518152L173.04 17.1518152zM242.04 3.15181518C240.653333 3.15181518 240.653333 1.15181518 242.04 1.15181518 243.32 1.15181518 243.32 3.15181518 242.04 3.15181518L242.04 3.15181518zM230 5.15181518C228.666667 5.15181518 228.666667 3.15181518 230 3.15181518 231.333333 3.15181518 231.333333 5.15181518 230 5.15181518L230 5.15181518zM194.04 33.1518152C192.653333 33.1518152 192.653333 31.1518152 194.04 31.1518152 195.32 31.1518152 195.32 33.1518152 194.04 33.1518152L194.04 33.1518152zM141 24.1518152C139.666667 24.1518152 139.666667 22.1518152 141 22.1518152 142.333333 22.1518152 142.333333 24.1518152 141 24.1518152L141 24.1518152zM271.04 56.1518152C269.653333 56.1518152 269.653333 54.1518152 271.04 54.1518152 272.32 54.1518152 272.32 56.1518152 271.04 56.1518152L271.04 56.1518152zM200 48.1518152C198.666667 48.1518152 198.666667 46.1518152 200 46.1518152 201.333333 46.1518152 201.333333 48.1518152 200 48.1518152L200 48.1518152zM131 46.1518152C129.666667 46.1518152 129.666667 44.1518152 131 44.1518152 132.333333 44.1518152 132.333333 46.1518152 131 46.1518152L131 46.1518152zM128 22.1518152C126.666667 22.1518152 126.666667 20.1518152 128 20.1518152 129.333333 20.1518152 129.333333 22.1518152 128 22.1518152L128 22.1518152zM156 39.1518152C154.666667 39.1518152 154.666667 37.1518152 156 37.1518152 157.333333 37.1518152 157.333333 39.1518152 156 39.1518152L156 39.1518152zM205 6.15181518C203.666667 6.15181518 203.666667 4.15181518 205 4.15181518 206.333333 4.25181518 206.333333 6.15181518 205 6.15181518L205 6.15181518zM281 42.1518152C279.666667 42.1518152 279.666667 40.1518152 281 40.1518152 282.333333 40.1518152 282.333333 42.1518152 281 42.1518152L281 42.1518152zM249.04 32.1518152C247.653333 32.1518152 247.653333 30.1518152 249.04 30.1518152 250.32 30.1518152 250.32 32.1518152 249.04 32.1518152L249.04 32.1518152zM217.4625 43.1518152C216.8625 43.1518152 216.8625 42.1518152 217.4625 42.1518152 218.1625 42.1518152 218.1625 43.1518152 217.4625 43.1518152L217.4625 43.1518152zM177.5 38.1518152C176.9 38.1518152 176.9 37.1518152 177.5 37.1518152 178.1 37.1518152 178.1 38.1518152 177.5 38.1518152L177.5 38.1518152zM106.48089 50.1518152C105.88089 50.1518152 105.88089 49.1518152 106.48089 49.1518152 107.08089 49.1518152 107.18089 50.1518152 106.48089 50.1518152L106.48089 50.1518152zM167.4625 10.1518152C166.8625 10.1518152 166.8625 9.15181518 167.4625 9.15181518 168.1625 9.15181518 168.1625 10.1518152 167.4625 10.1518152L167.4625 10.1518152zM283.5 56.1518152C282.9 56.1518152 282.9 55.1518152 283.5 55.1518152 284.1 55.1518152 284.1 56.1518152 283.5 56.1518152L283.5 56.1518152zM237.4625 48.1518152C236.8625 48.1518152 236.8625 47.1518152 237.4625 47.1518152 238.1625 47.1518152 238.1625 48.1518152 237.4625 48.1518152L237.4625 48.1518152zM181.5 5.15181518C180.9 5.15181518 180.9 4.15181518 181.5 4.15181518 182.1 4.15181518 182.1 5.15181518 181.5 5.15181518L181.5 5.15181518zM124.4625 14.1518152C123.8625 14.1518152 123.8625 13.1518152 124.4625 13.1518152 125.1625 13.2518152 125.1625 14.1518152 124.4625 14.1518152L124.4625 14.1518152zM121.5 60.1518152C120.9 60.1518152 120.9 59.1518152 121.5 59.1518152 122.1 59.1518152 122.1 60.1518152 121.5 60.1518152L121.5 60.1518152z"/>
      <path d="M270.4625 55.1518152C269.8625 55.1518152 269.8625 54.1518152 270.4625 54.1518152 271.1625 54.2518152 271.1625 55.1518152 270.4625 55.1518152L270.4625 55.1518152zM194.5 55.1518152C193.9 55.1518152 193.9 54.1518152 194.5 54.1518152 195.1 54.1518152 195.1 55.1518152 194.5 55.1518152L194.5 55.1518152z"/>
      <g opacity=".2" transform="translate(0 6.152)">
        <ellipse cx="28.79" cy="27.596" rx="19.032" ry="21.711"/>
        <ellipse cx="28.777" cy="27.657" rx="19.013" ry="21.731" transform="rotate(-62.838 28.777 27.657)"/>
        <ellipse cx="28.797" cy="27.898" rx="23.571" ry="19.011" transform="rotate(-15.658 28.797 27.898)"/>
      </g>
      <g opacity=".2" transform="translate(44 .152)">
        <ellipse cx="29.599" cy="27.307" rx="19.057" ry="22.095" transform="rotate(-5.435 29.6 27.307)"/>
        <ellipse cx="29.645" cy="27.33" rx="19.307" ry="21.808" transform="rotate(-68.271 29.645 27.33)"/>
        <ellipse cx="29.688" cy="27.488" rx="23.648" ry="19.311" transform="rotate(-21.094 29.688 27.488)"/>
      </g>
      <g opacity=".3" transform="translate(36 38.152)">
        <path d="M11.3,5.7 C11.6,8.9 9.6,11.7 6.8,11.9 C4,12.2 1.5,9.8 1.2,6.6 C0.9,3.4 2.9,0.6 5.7,0.4 C8.5,0.1 11,2.5 11.3,5.7 Z" opacity=".2"/>
        <path d="M8.2,1.5 C11.2,2.7 12.7,5.8 11.7,8.4 C10.7,11 7.4,12.1 4.4,11 C1.4,9.8 -0.1,6.7 0.9,4.1 C2,1.4 5.2,0.3 8.2,1.5 Z" opacity=".2"/>
        <path d="M4.5,1.5 C7.7,0.3 11.2,1.4 12.2,4 C13.2,6.6 11.4,9.7 8.2,11 C5,12.2 1.5,11.1 0.5,8.5 C-0.6,5.9 1.2,2.7 4.5,1.5 Z" opacity=".2"/>
      </g>
      <g opacity=".3" transform="translate(40 32.152)">
        <path d="M11.9,5.4 C12.2,8.6 10.2,11.4 7.4,11.6 C4.6,11.9 2.1,9.5 1.8,6.3 C1.5,3.1 3.5,0.3 6.3,0.1 C9.1,-0.2 11.6,2.2 11.9,5.4 Z" opacity=".2"/>
        <path d="M8.7,1.1 C11.7,2.3 13.2,5.4 12.2,8 C11.2,10.6 7.9,11.7 4.9,10.6 C1.9,9.4 0.4,6.3 1.4,3.7 C2.5,1.1 5.7,0 8.7,1.1 Z" opacity=".2"/>
        <path d="M5,1.2 C8.2,0 11.7,1.1 12.7,3.7 C13.7,6.3 11.9,9.4 8.7,10.7 C5.5,11.9 2,10.8 1,8.2 C0,5.6 1.8,2.4 5,1.2 Z" opacity=".2"/>
      </g>
      <g opacity=".7" transform="translate(1 37.152)">
        <ellipse cx="13.616" cy="12.504" opacity=".2" rx="8.786" ry="10" transform="rotate(-5.435 13.616 12.504)"/>
        <path d="M16.8965517,4.32692308 C22.1103448,6.34615385 24.8137931,11.7307692 22.9793103,16.1538462 C21.1448276,20.6730769 15.5448276,22.6923077 10.3310345,20.5769231 C5.11724138,18.4615385 2.4137931,13.1730769 4.24827586,8.75 C6.08275862,4.23076923 11.7793103,2.30769231 16.8965517,4.32692308 Z" opacity=".2"/>
        <ellipse cx="13.713" cy="12.582" opacity=".2" rx="10.905" ry="8.755" transform="rotate(-21.094 13.713 12.582)"/>
      </g>
      <g opacity=".6" transform="translate(68 3.152)">
        <ellipse cx="21.004" cy="19.204" opacity=".2" rx="13.772" ry="15.698" transform="rotate(-5.435 21.004 19.204)"/>
        <ellipse cx="21.02" cy="19.148" opacity=".2" rx="13.75" ry="15.721" transform="rotate(-68.271 21.02 19.148)"/>
        <ellipse cx="20.992" cy="19.298" opacity=".2" rx="17.089" ry="13.751" transform="rotate(-21.094 20.992 19.298)"/>
      </g>
      <g opacity=".2" transform="translate(15 4.152)">
        <ellipse cx="13.997" cy="12.022" rx="8.786" ry="10" transform="rotate(-5.436 13.997 12.022)"/>
        <ellipse cx="13.983" cy="12.063" rx="8.755" ry="10.035" transform="rotate(-68.271 13.983 12.063)"/>
        <ellipse cx="13.987" cy="12.131" rx="10.905" ry="8.755" transform="rotate(-21.094 13.987 12.13)"/>
      </g>
      <path d="M24 3.15181518C25.3333333 3.15181518 25.3333333 1.15181518 24 1.15181518 22.6666667 1.15181518 22.6666667 3.15181518 24 3.15181518L24 3.15181518zM37 5.15181518C38.3333333 5.15181518 38.3333333 3.15181518 37 3.15181518 35.6666667 3.15181518 35.6666667 5.15181518 37 5.15181518L37 5.15181518zM72 33.1518152C73.3333333 33.1518152 73.3333333 31.1518152 72 31.1518152 70.6666667 31.1518152 70.6666667 33.1518152 72 33.1518152L72 33.1518152zM65.96 48.1518152C67.3466667 48.1518152 67.3466667 46.1518152 65.96 46.1518152 64.68 46.1518152 64.68 48.1518152 65.96 48.1518152L65.96 48.1518152zM61.96 6.15181518C63.3466667 6.15181518 63.3466667 4.15181518 61.96 4.15181518 60.68 4.25181518 60.68 6.15181518 61.96 6.15181518L61.96 6.15181518zM18 32.1518152C19.3333333 32.1518152 19.3333333 30.1518152 18 30.1518152 16.6666667 30.1518152 16.6666667 32.1518152 18 32.1518152L18 32.1518152zM49.5 43.1518152C50.1 43.1518152 50.1 42.1518152 49.5 42.1518152 48.9 42.1518152 48.9 43.1518152 49.5 43.1518152L49.5 43.1518152zM29.5 48.1518152C30.1 48.1518152 30.1 47.1518152 29.5 47.1518152 28.9 47.1518152 28.9 48.1518152 29.5 48.1518152L29.5 48.1518152zM72.5 55.1518152C73.1 55.1518152 73.1 54.1518152 72.5 54.1518152 71.9 54.1518152 71.9 55.1518152 72.5 55.1518152L72.5 55.1518152z"/>
    </g>
    <path fill="#FFF" d="M244.695 43.398C244.9 43.121 245.128 42.862 245.378 42.625 245.535791 42.4864637 245.714716 42.374045 245.908 42.292 246.068 42.23 246.238 42.196 246.408 42.192L246.408 41.992 243.826 41.992 243.826 42.192C243.998 42.185 244.17 42.202 244.336 42.242 244.418 42.274 244.486 42.329 244.536 42.4 244.579223 42.4575698 244.601771 42.5280323 244.6 42.6 244.600252 42.6762916 244.582794 42.7516007 244.549 42.82 244.468703 42.9610403 244.376359 43.0948722 244.273 43.22L242.978 44.858 241.861 43.188C241.724998 43.0210217 241.635944 42.8208214 241.603 42.608 241.60942 42.4968475 241.668488 42.3954284 241.762 42.335 241.941 42.232 242.145 42.183 242.35 42.195L242.35 41.991 238.982 41.991 238.982 42.191C239.315405 42.1961195 239.640835 42.2937485 239.922 42.473 240.317 42.785 240.654 43.164 240.917 43.593L242.35 45.693 240.632 47.863C240.43 48.129 240.2 48.373 239.944 48.588 239.751 48.742 239.538 48.868 239.31 48.964 239.159 49.026 239 49.064 238.838 49.077L238.838 49.277 241.422 49.277 241.422 49.077C241.228837 49.087403 241.036698 49.0426631 240.868 48.948 240.776325 48.882575 240.72223 48.776624 240.723 48.664 240.7232 48.5884124 240.739566 48.5137419 240.771 48.445 240.856 48.298 240.953 48.159 241.061 48.029L242.587 46.074 243.822 47.944C243.932 48.094 244.032 48.252 244.122 48.417 244.153302 48.4956436 244.16991 48.5793628 244.171 48.664 244.168918 48.7368036 244.143306 48.8069734 244.098 48.864 244.05089 48.9289515 243.986916 48.9797847 243.913 49.011 243.763 49.058 243.608 49.081 243.451 49.075L243.451 49.275 246.577 49.275 246.577 49.075C246.287265 49.0695471 246.006897 48.9714183 245.777 48.795 245.407826 48.4270621 245.084175 48.0161198 244.813 47.571L243.251 45.241 244.695 43.398 244.695 43.398zM232.895 42.506C232.617114 42.4481598 232.334708 42.4146993 232.051 42.406 231.631431 42.3867484 231.222536 42.5416217 230.921 42.834 230.631 43.128 230.478 43.53 230.494 43.942 230.484 44.386 230.68 44.81 231.024 45.092 231.477275 45.4237912 232.033739 45.5836416 232.594 45.543L232.896 45.543 232.896 42.506 232.895 42.506 232.895 42.506zM227.722 49.084C228.062 49.058 228.394 48.956 228.689 48.784 229.038 48.519 229.339 48.195 229.575 47.827L231.075 45.738C230.560631 45.6537223 230.086042 45.409078 229.719 45.039 229.4315 44.7196807 229.275081 44.3036346 229.281 43.874 229.272987 43.4786086 229.409527 43.0938806 229.665 42.792 229.909 42.497 230.234 42.28 230.6 42.169 231.15946 42.033965 231.734931 41.977091 232.31 42L234.965 42 234.965 42.2 234.695 42.2C234.462852 42.1827174 234.2349 42.2687027 234.072 42.435 233.937665 42.698601 233.885417 42.9964136 233.922 43.29L233.922 47.991C233.895 48.259 233.934 48.531 234.034 48.781 234.186 48.991 234.437 49.105 234.694 49.082L234.969 49.082 234.969 49.282 231.848 49.282 231.848 49.082 232.133 49.082C232.362182 49.0985298 232.586726 49.0115742 232.745 48.845 232.879 48.582 232.931 48.285 232.895 47.991L232.895 45.874 232.728 45.881 232.578 45.881C232.464 45.881 232.314 45.881 232.132 45.871L229.668 49.275 227.722 49.275 227.722 49.075 227.722 49.085 227.722 49.084zM221.849 47.956C221.889066 48.2724313 221.822941 48.5932104 221.661 48.868 221.405532 49.0352199 221.101105 49.1113267 220.797 49.084L220.797 49.284 223.927 49.284 223.927 49.084C223.622858 49.111804 223.318276 49.0356584 223.063 48.868 222.900974 48.593257 222.835172 48.2723369 222.876 47.956L222.876 43.326C222.834711 43.0093263 222.900537 42.6879412 223.063 42.413 223.318552 42.2451204 223.623526 42.1689652 223.928 42.197L223.928 41.991 218.068 41.991 218.068 42.191C218.372 42.163 218.676 42.239 218.932 42.406 219.094 42.681 219.161 43.002 219.12 43.319L219.12 44.844C219.17379 45.8336773 219.074281 46.8257225 218.825 47.785 218.761484 48.1795621 218.455433 48.4908279 218.062 48.561 217.902203 48.5496042 217.750189 48.4876078 217.628 48.384 217.520471 48.2921296 217.386905 48.2361854 217.246 48.224 217.118027 48.2219809 216.995198 48.2743107 216.908 48.368 216.817065 48.459236 216.766618 48.5831931 216.767972 48.712 216.77 48.887 216.848 49.053 216.983 49.167 217.153 49.308 217.373 49.379 217.595 49.367 218.22 49.367 218.79 49.008 219.061 48.445 219.524248 47.1620483 219.705696 45.7943612 219.593 44.435L219.593 42.391 221.849 42.391 221.849 47.956 221.849 47.956zM207.502 46.446L208.769 43.503 210.005 46.446 207.502 46.446 207.502 46.446zM210.595 47.891C210.71 48.126 210.783 48.378 210.81 48.638 210.809869 48.7569397 210.752568 48.868565 210.656 48.938 210.477923 49.0417195 210.27391 49.0923759 210.068 49.084L210.068 49.284 212.942 49.284 212.942 49.084C212.687815 49.0830209 212.441316 48.9967462 212.242 48.839 211.998973 48.5621367 211.813076 48.2399608 211.695 47.891L209.16 41.833 208.972 41.833 206.41 47.826C206.274346 48.2099243 206.068517 48.5652922 205.803 48.874 205.627581 48.9934084 205.424414 49.0657222 205.213 49.084L205.213 49.282 207.507 49.282 207.507 49.083C207.268132 49.0873333 207.03208 49.030901 206.821 48.919 206.724645 48.8520975 206.665958 48.7432667 206.663 48.626 206.685294 48.4051697 206.746932 48.1901123 206.845 47.991L207.34 46.842 210.159 46.842 210.595 47.892 210.595 47.891zM196.008 41.991L195.924 43.699 196.123 43.699C196.132052 43.4218877 196.21341 43.1519593 196.359 42.916 196.472665 42.7372654 196.640505 42.5995598 196.838 42.523 197.074 42.463 197.318 42.437 197.562 42.448L198.438 42.448 198.438 48.012C198.463579 48.2792394 198.422343 48.5486466 198.318 48.796 198.162461 48.9953366 197.915597 49.1010277 197.664 49.076L197.406 49.076 197.406 49.276 200.495 49.276 200.495 49.076 200.242 49.076C200.009675 49.0948197 199.780598 49.0120164 199.614 48.849 199.485227 48.5897032 199.434838 48.2984898 199.469 48.011L199.469 42.452 200.495 42.452C200.747 42.442 200.995 42.493 201.223 42.6 201.413 42.706 201.568 42.865 201.667 43.06 201.754 43.264 201.807 43.482 201.827 43.705L202.027 43.705 201.954 41.991 196.008 41.991 196.008 41.991zM189.982 42.391C190.237 42.378 190.492 42.406 190.739 42.472 190.904912 42.5364054 191.046524 42.6510933 191.144 42.8 191.271 43.047 191.354 43.315 191.394 43.59L191.604 43.59 191.523 41.99 185.91 41.99 185.91 42.19 186.169 42.19C186.404443 42.1670916 186.638539 42.2452446 186.813 42.405 186.939 42.671 186.987 42.967 186.952 43.259L186.952 47.991C186.965 48.226 186.944 48.461 186.891 48.691 186.849833 48.8043476 186.765803 48.8969969 186.657 48.949 186.507 49.031 186.339 49.074 186.169 49.073L185.909 49.073 185.909 49.273 191.523 49.273 192.151 47.447 191.937 47.447C191.759574 47.8115236 191.530183 48.1483677 191.256 48.447 191.105788 48.6014382 190.920554 48.7173812 190.716 48.785 190.421211 48.8539395 190.118535 48.8831982 189.816 48.872L188.586 48.872C188.446318 48.8825214 188.306079 48.8609725 188.176 48.809 188.108454 48.7724915 188.055499 48.7138881 188.026 48.643 187.986547 48.4496525 187.972428 48.2519921 187.984 48.055L187.984 45.655 189.584 45.655C189.814 45.642 190.046 45.678 190.261 45.762 190.396845 45.8243263 190.508288 45.9297933 190.578 46.062 190.657 46.283 190.707 46.512 190.728 46.744L190.928 46.744 190.928 44.214 190.728 44.214C190.744 44.534 190.632 44.847 190.418 45.085 190.168975 45.2385289 189.875754 45.3043542 189.585 45.272L187.984 45.272 187.984 42.392 189.984 42.392 189.982 42.392 189.982 42.391zM179.871 42.391L179.871 47.934C179.911 48.215 179.861 48.502 179.729 48.754 179.45764 48.8719228 179.159667 48.9150823 178.866 48.879L176.166 48.879C176.641536 48.2845454 176.985758 47.5961019 177.176 46.859 177.504 45.392 177.674 43.894 177.686 42.39L179.866 42.39 179.871 42.391 179.871 42.391zM175.939 42.191C176.195 42.189 176.449 42.218 176.699 42.277 176.842087 42.3381436 176.956511 42.451495 177.019 42.594 177.124 42.844 177.169 43.114 177.153 43.384 177.137596 44.1546746 177.067419 44.9232789 176.943 45.684 176.838167 46.5100862 176.583677 47.3101548 176.192 48.045 175.934 48.612 175.402 49.005 174.784 49.083L174.784 51.376 174.967 51.376C175.051026 50.8412618 175.289064 50.3425998 175.652 49.941 176.120941 49.4659293 176.776901 49.2240668 177.442 49.281L179.302 49.281C179.670985 49.2728314 180.03864 49.3279628 180.389 49.444 180.718 49.575 181.002 49.801 181.199 50.094 181.464 50.479 181.639 50.916 181.719 51.376L181.901 51.376 181.901 49.081C181.582357 49.1465181 181.252609 49.0411505 181.031 48.803 180.906961 48.3313282 180.86102 47.8425237 180.895 47.356L180.895 43.322C180.854232 43.0050983 180.920771 42.6836724 181.084 42.409 181.339 42.242 181.643 42.167 181.947 42.194L181.947 41.991 175.937 41.991 175.937 42.191 175.939 42.191 175.939 42.191zM160.216 45.762C160.341 45.742 160.469 45.728 160.596 45.724 160.755 45.717 160.944 45.714 161.166 45.714 161.606497 45.7005551 162.045107 45.7771161 162.455 45.939 162.765 46.059 163.029 46.276 163.207 46.557 163.357 46.803 163.436 47.087 163.437 47.374 163.441745 47.7937538 163.253789 48.1925149 162.927 48.456 162.501465 48.7748262 161.975439 48.9299365 161.445 48.893 161.030866 48.8918025 160.618212 48.8434919 160.215 48.749L160.215 45.762 160.216 45.762zM160.216 42.47C160.531 42.388 160.856 42.348 161.182 42.352 161.726485 42.3140262 162.266339 42.4742065 162.702 42.803 163.032 43.068 163.224 43.469 163.222 43.893 163.225 44.163 163.152 44.426 163.014 44.656 162.87477 44.8885798 162.664405 45.0701942 162.414 45.174 162.035209 45.3058162 161.634596 45.3635316 161.234 45.344 161.034 45.344 160.843 45.337 160.674 45.324 160.521407 45.3138421 160.369502 45.2951461 160.219 45.268L160.219 42.468 160.216 42.47 160.216 42.47zM164.015 44.918C164.234 44.638 164.351 44.293 164.348 43.938 164.351632 43.5211964 164.200558 43.1178562 163.924 42.806 163.597078 42.4531175 163.166255 42.2135376 162.694 42.122 162.229517 42.0248037 161.755421 41.9811856 161.281 41.992L158.133 41.992 158.133 42.192 158.407 42.192C158.639344 42.1746974 158.867434 42.2611008 159.03 42.428 159.167 42.691 159.22 42.988 159.186 43.282L159.186 47.992C159.211 48.264 159.169 48.539 159.063 48.792 158.908679 48.9949509 158.660968 49.1044574 158.407 49.082L158.133 49.082 158.133 49.282 161.571 49.282C162.189234 49.3097368 162.807689 49.232303 163.4 49.053 163.782 48.915 164.11 48.663 164.342 48.329 164.562 48.026 164.682 47.663 164.686 47.29 164.694 46.83 164.505 46.39 164.165 46.081 163.841347 45.808886 163.449639 45.6301455 163.032 45.564 163.421 45.457 163.766 45.232 164.022 44.92L164.015 44.918 164.015 44.918zM146.215 42.949C146.765 43.77 147.025 44.752 146.951 45.737 147.024746 46.6306771 146.788117 47.522453 146.281 48.262 145.870875 48.780165 145.241677 49.0762581 144.581 49.062 143.978669 49.0794698 143.404216 48.808221 143.035 48.332 142.479157 47.5285278 142.210676 46.56101 142.273 45.586 142.207542 44.6466212 142.467434 43.7133399 143.009 42.943 143.387293 42.4665707 143.968991 42.1976096 144.577 42.218 145.20647 42.1891958 145.812451 42.4599218 146.211 42.948L146.216 42.949 146.215 42.949zM142.229 42.777C141.442917 43.5039047 141.012168 44.5369716 141.049 45.607 141.007149 46.6286999 141.375063 47.6248041 142.071 48.374 142.735205 49.06177 143.651867 49.447868 144.607988 49.4426329 145.56411 49.4372906 146.476444 49.0410757 147.133 48.346 147.836354 47.6045488 148.213743 46.6124623 148.181 45.591 148.21 44.591 147.836 43.623 147.141 42.903 146.511454 42.2122813 145.618556 41.820889 144.684 41.826 143.772876 41.8102365 142.891741 42.1515639 142.229 42.777L142.229 42.777zM132.411 45.763C132.537 45.743 132.665 45.729 132.791 45.725 132.949 45.718 133.139 45.715 133.361 45.715 133.801517 45.701273 134.240184 45.7778439 134.65 45.94 134.96 46.06 135.224 46.277 135.402 46.558 135.551 46.804 135.632 47.086 135.632 47.375 135.637 47.795 135.45 48.193 135.122 48.457 134.696651 48.7754328 134.171083 48.9305124 133.641 48.894 133.226874 48.8926644 132.814236 48.8443556 132.411 48.75L132.411 45.763 132.411 45.763zM132.411 42.471C132.726 42.389 133.051 42.349 133.377 42.353 133.921515 42.3147522 134.461463 42.4749604 134.897 42.804 135.227 43.069 135.42 43.47 135.419 43.894 135.421 44.164 135.348 44.427 135.209 44.657 135.069 44.889 134.859 45.071 134.609 45.175 134.230191 45.3067433 133.829592 45.3644567 133.429 45.345 133.229 45.345 133.038 45.338 132.868 45.325 132.716069 45.314843 132.56483 45.2961468 132.415 45.269L132.415 42.469 132.411 42.471 132.411 42.471zM136.211 44.919C136.43 44.639 136.548 44.294 136.545 43.939 136.547787 43.5221657 136.396424 43.1190068 136.12 42.807 135.793078 42.4541175 135.362255 42.2145376 134.89 42.123 134.425517 42.0258037 133.951421 41.9821856 133.477 41.993L130.33 41.993 130.33 42.193 130.604 42.193C130.836364 42.1755574 131.064512 42.2619825 131.227 42.429 131.363 42.692 131.417 42.99 131.382 43.283L131.382 47.991C131.407 48.264 131.365 48.539 131.259 48.792 131.105119 48.9949413 130.85769 49.1044897 130.604 49.082L130.33 49.082 130.33 49.282 133.767 49.282C134.385234 49.3097368 135.003689 49.232303 135.596 49.053 135.976 48.915 136.306 48.663 136.539 48.329 136.758375 48.0266483 136.878248 47.6635344 136.882 47.29 136.89 46.83 136.7 46.39 136.361 46.081 136.037238 45.809058 135.64558 45.6303404 135.228 45.564 135.614457 45.4557103 135.958089 45.2308135 136.212 44.92L136.211 44.919zM120.359 41.993L120.273 43.701 120.473 43.701C120.482 43.423 120.563 43.154 120.709 42.918 120.822512 42.7395237 120.989945 42.6018639 121.187 42.525 121.424 42.465 121.667 42.439 121.912 42.45L122.795 42.45 122.795 48.014C122.82 48.281 122.78 48.55 122.677 48.798 122.520947 48.9978199 122.273246 49.1035457 122.021 49.078L121.763 49.078 121.763 49.278 124.852 49.278 124.852 49.078 124.595 49.078C124.362729 49.0964199 124.133812 49.0136746 123.967 48.851 123.838669 48.5915586 123.788303 48.3004772 123.822 48.013L123.822 42.453 124.848 42.453C125.098 42.443 125.348 42.493 125.576 42.6 125.766 42.706 125.921 42.865 126.019 43.06 126.107 43.264 126.161 43.482 126.179 43.705L126.379 43.705 126.304 41.991 120.359 41.991 120.359 41.993 120.359 41.993zM115.744 41.827C115.715186 41.9761207 115.646008 42.1144766 115.544 42.227 115.476909 42.2929316 115.386044 42.3289892 115.292 42.327 115.17796 42.3097798 115.068494 42.2700052 114.97 42.21 114.488787 41.9589384 113.954755 41.8259446 113.412 41.822 112.754261 41.8162732 112.107287 41.989076 111.54 42.322 110.966344 42.6607685 110.500096 43.1547486 110.195 43.747 109.867526 44.3624068 109.699087 45.0499135 109.705 45.747 109.687213 46.5909194 109.947991 47.4171867 110.447 48.098 111.096103 48.9868395 112.14752 49.491144 113.247 49.441 113.857 49.458 114.457 49.301 114.982 48.991 115.523168 48.6341297 115.964676 48.1454779 116.265 47.571L116.095 47.463C115.785 47.943 115.38 48.354 114.903 48.669 114.519 48.876 114.088 48.979 113.652 48.969 113.141209 48.9778439 112.638058 48.8441782 112.199 48.583 111.772326 48.3212942 111.438892 47.9318799 111.246 47.47 111.023905 46.9268026 110.915999 46.3437032 110.929 45.757 110.909433 45.0747961 111.023579 44.3953579 111.265 43.757 111.594867 42.8137404 112.496053 42.191397 113.495 42.217 114.031 42.203 114.555 42.377 114.977 42.707 115.45 43.129 115.781 43.687 115.927 44.305L116.095 44.305 115.929 41.83 115.744 41.83 115.744 41.827 115.744 41.827zM103.609 42.391C103.864 42.378 104.119 42.406 104.366 42.472 104.532044 42.5366345 104.673913 42.6512478 104.772 42.8 104.899 43.047 104.982 43.315 105.022 43.59L105.232 43.59 105.151 41.99 99.538 41.99 99.538 42.19 99.795 42.19C100.030779 42.1667999 100.265297 42.2449728 100.44 42.405 100.566 42.671 100.614 42.967 100.58 43.259L100.58 47.991C100.592 48.226 100.57 48.461 100.518 48.691 100.478093 48.8051019 100.393676 48.8981772 100.284 48.949 100.134 49.031 99.966 49.074 99.794 49.073L99.538 49.073 99.538 49.273 105.151 49.273 105.779 47.447 105.564 47.447C105.386937 47.8119748 105.157143 48.1489155 104.882 48.447 104.732641 48.6010332 104.548478 48.7169494 104.345 48.785 104.050202 48.8538806 103.747534 48.8831385 103.445 48.872L102.213 48.872C102.073982 48.8822142 101.934462 48.8606707 101.805 48.809 101.737555 48.7723628 101.684637 48.7138004 101.655 48.643 101.614718 48.4497652 101.600258 48.2520392 101.612 48.055L101.612 45.655 103.212 45.655C103.442 45.642 103.674 45.678 103.889 45.762 104.025232 45.823751 104.136841 45.9293746 104.206 46.062 104.285 46.283 104.335 46.512 104.356 46.744L104.556 46.744 104.556 44.214 104.356 44.214C104.371758 44.5340607 104.259912 44.8473025 104.045 45.085 103.797 45.239 103.503 45.305 103.212 45.272L101.612 45.272 101.612 42.392 103.612 42.392 103.609 42.392 103.609 42.391zM91.719 45.981C91.498169 45.9900764 91.2794123 45.9352136 91.089 45.823 90.9256094 45.7185023 90.80856 45.5552775 90.762 45.367 90.6960623 45.0356072 90.6688798 44.6976715 90.681 44.36L90.681 43.35C90.67 43.1 90.691 42.847 90.743 42.601 90.7922796 42.4606474 90.9026474 42.3502796 91.043 42.301 91.268 42.223 91.506 42.191 91.743 42.201L91.743 41.991 88.595 41.991 88.595 42.191C88.82 42.185 89.044 42.217 89.258 42.285 89.3954563 42.327485 89.5086948 42.4258428 89.57 42.556 89.638 42.814 89.665 43.081 89.648 43.346L89.648 44.582C89.628 44.98 89.663 45.38 89.748 45.772 89.846 46.007 90.023 46.202 90.248 46.322 90.564 46.502 90.924 46.59 91.287 46.574 92.056022 46.5222677 92.8066845 46.3158101 93.494 45.967L93.494 47.922C93.512 48.19 93.484 48.459 93.413 48.717 93.3530369 48.8377096 93.2493372 48.9310394 93.123 48.978 92.903 49.05 92.673 49.085 92.441 49.078L92.441 49.278 95.578 49.278 95.578 49.078C95.3536268 49.0787529 95.1303212 49.0470927 94.915 48.984 94.7853345 48.9417997 94.6775386 48.8501732 94.615 48.729 94.5367315 48.4679404 94.5062424 48.1948938 94.525 47.923L94.525 43.35C94.51 43.087 94.535 42.824 94.601 42.568 94.6576724 42.4378592 94.7665958 42.3376497 94.901 42.292 95.119 42.218 95.348 42.185 95.578 42.192L95.578 41.992 92.445 41.992 92.445 42.192C92.6725032 42.1865156 92.8992236 42.2206929 93.115 42.293 93.2494467 42.3353112 93.3605046 42.4311755 93.422 42.558 93.489 42.818 93.514 43.084 93.497 43.35L93.497 45.542C92.943 45.812 92.337 45.962 91.719 45.982L91.719 45.981zM80.942 46.443L82.21 43.501 83.445 46.443 80.942 46.443zM84.036 47.888C84.151 48.123 84.224 48.376 84.251 48.635 84.251 48.753 84.194 48.865 84.098 48.935 83.9199234 49.0387195 83.7159098 49.0893759 83.51 49.081L83.51 49.281 86.384 49.281 86.384 49.081C86.1297886 49.0801759 85.8832404 48.993884 85.684 48.836 85.4369233 48.5605162 85.2478337 48.2381116 85.128 47.888L82.595 41.83 82.409 41.83 79.847 47.823C79.7113458 48.2069243 79.5055173 48.5622922 79.24 48.871 79.065 48.991 78.86 49.061 78.649 49.081L78.649 49.279 80.942 49.279 80.942 49.08C80.7033974 49.0848269 80.4675461 49.0283603 80.257 48.916 80.1610135 48.848769 80.1024351 48.7401393 80.099 48.623 80.1211782 48.4020239 80.1831779 48.1868882 80.282 47.988L80.776 46.839 83.595 46.839 84.035 47.889 84.036 47.888zM73.752 48.618C73.2631394 48.0581227 72.8127747 47.4657661 72.404 46.845 72.1082392 46.2652861 71.6334043 45.796413 71.05 45.508 71.6983701 45.1185478 72.1701923 44.4925588 72.366 43.762 72.468 43.445 72.599 43.138 72.758 42.846 72.8193968 42.7375651 72.9334156 42.6695339 73.058 42.667 73.2116676 42.6900165 73.3594026 42.7426577 73.493 42.822 73.648 42.912 73.817 42.969 73.993 42.994 74.1322284 42.9950349 74.2662514 42.9411383 74.366 42.844 74.4700747 42.7554376 74.5300302 42.6256559 74.53 42.489 74.53 42.102 74.255 41.909 73.703 41.909 73.422744 41.9017498 73.1450824 41.9642924 72.895 42.091 72.6959528 42.1880385 72.5264424 42.3364895 72.404 42.521 72.2479662 42.8062419 72.1158471 43.103928 72.009 43.411 71.8892185 43.7462697 71.7482683 44.073595 71.587 44.391 71.4703522 44.5995964 71.3196015 44.7871898 71.141 44.946 70.9967322 45.090469 70.8236376 45.2029124 70.633 45.276 70.3672474 45.3373938 70.0945824 45.363618 69.822 45.354L69.822 43.324C69.782 43.007 69.847 42.687 70.007 42.411 70.263 42.243 70.569 42.168 70.874 42.196L70.874 41.991 67.742 41.991 67.742 42.191C68.047 42.163 68.351 42.239 68.607 42.406 68.769 42.681 68.836 43.002 68.795 43.319L68.795 47.949C68.8366498 48.2671432 68.7693262 48.5900144 68.604 48.865 68.3482807 49.0296604 68.0449222 49.1042683 67.742 49.077L67.742 49.277 70.879 49.277 70.879 49.077C70.5739639 49.1059529 70.2681655 49.0301205 70.012 48.862 69.8520134 48.5861383 69.7870188 48.2653809 69.827 47.949L69.827 45.777C70.054 45.765 70.28 45.818 70.477 45.93 70.922 46.392 71.324 46.895 71.677 47.43 72.333 48.335 72.762 48.95 72.966 49.275L74.846 49.275 74.846 49.075C74.4339333 49.0799579 74.0380947 48.914603 73.752 48.618L73.752 48.618zM244.895 19.405C244.698978 17.6302708 243.805334 16.0063126 242.411 14.891 240.778074 13.6221637 238.744413 12.9807019 236.679 13.083 234.179 12.981 231.76 13.983 230.064 15.823 228.32888 17.840617 227.434049 20.4470814 227.564 23.105 227.420043 25.6996468 228.310397 28.2455697 230.04 30.185 231.598405 31.8912598 233.824283 32.8317975 236.134 32.76 237.466889 32.8039648 238.785625 32.4753197 239.942 31.811 240.711401 31.2957858 241.396782 30.6650459 241.974 29.941L242.367 32.278 244.957 32.278 244.957 22.238 237.157 22.238 237.157 25.361 241.495 25.361C241.342631 26.4984928 240.794158 27.5458674 239.946 28.319 239.054153 29.0919793 237.901268 29.496061 236.722 29.449 235.388558 29.4506906 234.105987 28.937304 233.142 28.016 232.092 27.062 231.567 25.436 231.567 23.139 231.429273 21.3123659 231.944543 19.4961611 233.021 18.014 233.931351 16.906454 235.30075 16.2794734 236.734 16.314 237.470506 16.3038372 238.201151 16.4461529 238.88 16.732 240.005277 17.2074368 240.81949 18.2125453 241.051 19.412L244.895 19.412 244.895 19.406 244.895 19.405zM216.058 13.563L207.107 13.563 207.107 32.28 210.929 32.28 210.929 24.942 214.748 24.942C215.539491 24.8532694 216.335213 25.0676534 216.975 25.542 217.461 26.239 217.681 27.085 217.594 27.929L217.619 29.669C217.626487 30.2098091 217.681701 30.7489016 217.784 31.28 217.834 31.535 217.919 31.867 218.038 32.28L222.354 32.28 222.354 31.81C221.971272 31.5749895 221.708221 31.1866074 221.632 30.744 221.54533 30.1689705 221.511855 29.5871754 221.532 29.006L221.532 27.748C221.594193 26.7429486 221.409128 25.7379698 220.993 24.821 220.570643 24.1307448 219.922213 23.6081137 219.158 23.342 220.110345 23.0527434 220.909305 22.3979701 221.38 21.521 221.814997 20.715038 222.046057 19.8148324 222.053 18.899 222.064451 18.2268298 221.946649 17.5587196 221.706 16.931 221.477577 16.3595509 221.159965 15.827947 220.765 15.356 220.293575 14.7868625 219.692865 14.3387302 219.013 14.049 218.067313 13.7069197 217.066396 13.5431517 216.061 13.566L216.058 13.564 216.058 13.563zM215.245 16.813C215.865765 16.775904 216.486318 16.889106 217.054 17.143 217.823013 17.6334635 218.240732 18.5230137 218.127 19.428 218.228223 20.2920172 217.78753 21.1292955 217.018 21.535 216.419647 21.7682841 215.778235 21.8705826 215.137 21.835L210.929 21.835 210.929 16.817 215.245 16.817 215.245 16.814 215.245 16.813zM200.49 13.563L186.975 13.563 186.975 32.28 200.952 32.28 200.952 28.916 190.795 28.916 190.795 24.105 199.682 24.105 199.682 20.855 190.795 20.855 190.795 16.88 200.495 16.88 200.495 13.567 200.49 13.563zM174.352 13.563L165.309 13.563 165.309 32.28 173.74 32.28C174.628 32.2863671 175.514309 32.2015897 176.385 32.027 177.822204 31.7480437 179.072756 30.8705844 179.824 29.614 180.382638 28.7207812 180.671858 27.6854208 180.657 26.632 180.686762 25.6664469 180.43335 24.7132859 179.928 23.89 179.412578 23.1136962 178.651663 22.53271 177.767 22.24 178.309747 21.9828279 178.795341 21.6193124 179.195 21.171 179.80319 20.385389 180.110672 19.4083259 180.062 18.416 180.088714 17.3966001 179.787622 16.3955281 179.203 15.56 178.251 14.265 176.634 13.601 174.353 13.567L174.352 13.564 174.352 13.563zM173.652 24.038C174.290293 24.01573 174.926466 24.1232331 175.522 24.354 176.30753 24.6993842 176.786577 25.5059678 176.714 26.361 176.819032 27.3174307 176.332167 28.2416831 175.484 28.696 174.882703 28.9446003 174.233909 29.0572857 173.584 29.026L169.041 29.026 169.041 24.04 173.647 24.04 173.652 24.037 173.652 24.038zM173.117 16.813C173.864834 16.7922195 174.6112 16.8907897 175.328 17.105 176.005469 17.3979643 176.411532 18.0996418 176.328 18.833 176.395904 19.4790035 176.104101 20.1102202 175.568 20.477 174.963288 20.8099309 174.278647 20.9701071 173.589 20.94L169.041 20.94 169.041 16.817 173.112 16.817 173.117 16.812 173.117 16.813zM143.859 26.5C143.781563 28.2827513 144.570071 29.9931088 145.976 31.092 147.668459 32.2912662 149.71808 32.880096 151.789 32.762 153.798792 32.8890716 155.787022 32.2872769 157.389 31.067 158.668912 30.0267992 159.399716 28.4560504 159.371 26.807 159.459019 25.3389082 158.836658 23.9178586 157.698 22.987 156.727884 22.3096948 155.624819 21.846448 154.462 21.628L151.178 20.854C150.322294 20.6930752 149.48808 20.4336838 148.692 20.081 148.116747 19.8069996 147.758901 19.2177922 147.781 18.581 147.762193 17.8897171 148.114679 17.2412043 148.705 16.881 149.451888 16.4400671 150.311737 16.2279732 151.178 16.271 151.98 16.245 152.778 16.406 153.507 16.741 154.427147 17.1872275 155.01299 18.1183693 155.017 19.141L158.775 19.141C158.805987 17.3578886 157.982346 15.6674918 156.559 14.593 155.074957 13.5218295 153.279534 12.9690401 151.45 13.02 149.494311 12.8796353 147.556422 13.472481 146.014 14.683 144.806629 15.7308583 144.128248 17.2617063 144.163 18.86 144.044133 20.447588 144.76113 21.9823866 146.055 22.91 147.328627 23.6213254 148.71577 24.1068253 150.155 24.345L152.185 24.791C153.091835 24.9470003 153.968949 25.2428577 154.785 25.668 155.303 25.957 155.619 26.509 155.604 27.102 155.629134 28.1296593 154.932 29.0348493 153.932 29.273 153.188243 29.4963857 152.413186 29.5977003 151.637 29.573 150.410222 29.7019248 149.189635 29.2786951 148.306 28.418 147.897998 27.8563345 147.651431 27.1937509 147.593 26.502L143.861 26.502 143.859 26.498 143.859 26.5zM132.228 13.562L123.277 13.562 123.277 32.28 127.095 32.28 127.095 24.942 130.914 24.942C131.705491 24.8532694 132.501213 25.0676534 133.141 25.542 133.627 26.237 133.847 27.085 133.76 27.929L133.785 29.669C133.792487 30.2098091 133.847701 30.7489016 133.95 31.28 134.001 31.535 134.086 31.867 134.204 32.28L138.52 32.28 138.52 31.81C138.137455 31.5747975 137.874467 31.1865081 137.798 30.744 137.71133 30.1689705 137.677855 29.5871754 137.698 29.006L137.698 27.748C137.760193 26.7429486 137.575128 25.7379698 137.159 24.821 136.736643 24.1307448 136.088213 23.6081137 135.324 23.342 136.276345 23.0527434 137.075305 22.3979701 137.546 21.521 137.980997 20.715038 138.212057 19.8148324 138.219 18.899 138.230451 18.2268298 138.112649 17.5587196 137.872 16.931 137.643577 16.3595509 137.325965 15.827947 136.931 15.356 136.460277 14.7861237 135.859373 14.3378462 135.179 14.049 134.233313 13.7069197 133.232396 13.5431517 132.227 13.566L132.228 13.564 132.228 13.562zM131.415 16.812C132.035765 16.774904 132.656318 16.888106 133.224 17.142 133.99422 17.6336298 134.411427 18.5256983 134.295 19.432 134.396223 20.2960172 133.95553 21.1332955 133.186 21.539 132.587794 21.772828 131.946264 21.8751455 131.305 21.839L127.095 21.839 127.095 16.816 131.411 16.816 131.415 16.813 131.415 16.812zM116.661 13.563L103.14 13.563 103.14 32.28 117.118 32.28 117.118 28.916 106.961 28.916 106.961 24.105 115.848 24.105 115.848 20.855 106.961 20.855 106.961 16.88 116.661 16.88 116.661 13.563zM97.381 19.493C97.5199924 17.8285418 96.9151487 16.1879215 95.729 15.012 94.481551 13.99665 92.9012023 13.4812724 91.295 13.566L83.264 13.566 83.264 32.28 87.149 32.28 87.149 25.55 91.049 25.55C92.7258372 25.6600707 94.3877368 25.1749221 95.742 24.18 96.837 23.265 97.385 21.704 97.385 19.495L97.381 19.492 97.381 19.493zM93.495 19.522C93.5643231 20.3063071 93.293766 21.0826568 92.752 21.654 92.1683137 22.1332655 91.4247919 22.3737222 90.671 22.327L87.149 22.327 87.149 16.817 90.673 16.817C91.4186137 16.7711782 92.1562242 16.9920006 92.754 17.44 93.301 17.988 93.573 18.751 93.495 19.522L93.495 19.522zM77.517 19.492C77.6547801 17.8288941 77.0500302 16.1899927 75.865 15.015 74.6186896 14.0003238 73.0399644 13.4846545 71.435 13.568L63.4 13.568 63.4 32.28 67.285 32.28 67.285 25.55 71.185 25.55C72.8618372 25.6600707 74.5237368 25.1749221 75.878 24.18 76.973 23.265 77.521 21.704 77.521 19.495L77.517 19.492 77.517 19.492zM73.632 19.522C73.7013231 20.3063071 73.430766 21.0826568 72.889 21.654 72.3053137 22.1332655 71.5617919 22.3737222 70.808 22.327L67.285 22.327 67.285 16.817 70.809 16.817C71.5546339 16.771002 72.2923041 16.9918422 72.89 17.44 73.4374993 17.9873715 73.7102545 18.7516736 73.633 19.522L73.632 19.522 73.632 19.522zM41.552 25.07C41.4690959 26.671498 41.7870284 28.2683785 42.477 29.716 43.634 31.746 45.832 32.763 49.068 32.763 52.305 32.763 54.498 31.746 55.646 29.716 56.3359716 28.2683785 56.6539041 26.671498 56.571 25.07L56.571 13.566 52.595 13.566 52.595 25.06C52.6533946 26.0208522 52.4976442 26.9826796 52.139 27.876 51.667 28.925 50.643 29.449 49.065 29.449 47.488 29.449 46.458 28.925 45.978 27.875 45.6196645 26.9816113 45.4642549 26.0197793 45.523 25.059L45.523 13.566 41.553 13.566 41.553 25.066 41.552 25.068 41.552 25.07zM20 32.279L23.847 32.279 23.847 26.021 25.73 24.111 31.495 32.279 36.523 32.279 28.451 21.262 36.13 13.562 31.077 13.562 23.847 21.272 23.847 13.567 20 13.567 20 32.28 20 32.279z"/>
    <path fill="#FFF" d="M15.9607843 21.2235294L16.3058824 21.2235294C16.3921569 21.2235294 16.4784314 21.2235294 16.4784314 21.2235294L16.4784314 21.2235294 16.4784314 21.2235294 16.4784314 21.2235294C16.5647059 21.2235294 16.5647059 21.2235294 16.6509804 21.2235294L16.9098039 21.2235294 16.9098039 21.2235294C22.9490196 21.1372549 25.7098039 18.5490196 25.7098039 18.5490196 18.5490196 15.4431373 16.5647059.603921569 16.5647059.603921569L16.5647059.862745098 16.5647059.603921569C16.5647059.603921569 14.5803922 15.4431373 7.41960784 18.5490196 7.33333333 18.5490196 10.0941176 21.0509804 15.9607843 21.2235294L15.9607843 21.2235294zM15.9607843 31.4901961L16.3921569 31.4901961C16.3921569 31.4901961 16.3921569 31.4901961 16.4784314 31.4901961L16.4784314 31.4901961 16.4784314 31.4901961 16.4784314 31.4901961C16.4784314 31.4901961 16.4784314 31.4901961 16.5647059 31.4901961L16.9098039 31.4901961 16.9098039 31.4901961C25.6235294 31.4039216 29.5921569 27.6941176 29.5921569 27.6941176 27.0901961 26.572549 25.0196078 24.5019608 23.3803922 22 21.9137255 22.6039216 19.7568627 23.2078431 16.8235294 23.2941176L16.3058824 23.2941176C13.372549 23.2941176 11.2156863 22.6901961 9.74901961 22 8.02352941 24.5019608 6.03921569 26.572549 3.5372549 27.6941176 3.45098039 27.6941176 7.33333333 31.3176471 15.9607843 31.4901961L15.9607843 31.4901961zM16.9098039 43.3960784C27.4352941 43.3098039 32.1803922 38.8235294 32.1803922 38.8235294 29.2470588 37.5294118 26.8313725 35.1137255 24.8470588 32.1803922 22.8627451 32.8705882 20.2745098 33.3882353 16.9960784 33.4745098L16.9960784 33.4745098 15.9607843 33.4745098C12.6823529 33.3882353 10.0941176 32.8705882 8.10980392 32.1803922 6.1254902 35.1137255 3.70980392 37.5294118.776470588 38.8235294.776470588 38.8235294 5.52156863 43.2235294 15.9607843 43.3960784L15.9607843 43.3960784 16.3921569 43.3960784C16.3921569 43.3960784 16.4784314 43.3960784 16.4784314 43.3960784L16.4784314 43.3960784 16.4784314 43.3960784 16.4784314 43.3960784C16.4784314 43.3960784 16.5647059 43.3960784 16.5647059 43.3960784L16.9098039 43.3960784 16.9098039 43.3960784z" transform="translate(251 7)"/>
  </g>
</svg>
