<svg xmlns="http://www.w3.org/2000/svg" width="227" height="39" viewBox="0 0 227 39">
  <g fill="none" fill-rule="evenodd">
    <path fill="#2C2D32" d="M224.6948,30.3981 C224.8998,30.1211 225.1278,29.8621 225.3778,29.6251 C225.5358,29.4861 225.7158,29.3741 225.9088,29.2921 C226.0688,29.2301 226.2378,29.1961 226.4088,29.1911 L226.4088,28.9911 L223.8258,28.9911 L223.8258,29.1911 C223.9978,29.1851 224.1698,29.2021 224.3368,29.2421 C224.4178,29.2741 224.4868,29.3291 224.5358,29.4001 C224.5788,29.4581 224.6018,29.5281 224.5998,29.6001 C224.5998,29.6761 224.5828,29.7521 224.5488,29.8201 C224.4678,29.9611 224.3768,30.0951 224.2728,30.2201 L222.9778,31.8581 L221.8608,30.1881 C221.7248,30.0211 221.6358,29.8211 221.6028,29.6081 C221.6088,29.4971 221.6688,29.3951 221.7618,29.3351 C221.9408,29.2321 222.1448,29.1831 222.3498,29.1941 L222.3498,28.9911 L218.9818,28.9911 L218.9818,29.1911 C219.3158,29.1961 219.6408,29.2941 219.9228,29.4731 C220.3168,29.7851 220.6538,30.1641 220.9168,30.5931 L222.3498,32.6931 L220.6318,34.8631 C220.4298,35.1291 220.1998,35.3731 219.9438,35.5881 C219.7508,35.7421 219.5378,35.8681 219.3098,35.9641 C219.1588,36.0261 218.9998,36.0641 218.8378,36.0771 L218.8378,36.2771 L221.4218,36.2771 L221.4218,36.0771 C221.2278,36.0871 221.0368,36.0431 220.8678,35.9481 C220.7758,35.8821 220.7218,35.7761 220.7228,35.6641 C220.7228,35.5871 220.7398,35.5131 220.7708,35.4451 C220.8558,35.2981 220.9528,35.1591 221.0608,35.0291 L222.5868,33.0741 L223.8218,34.9431 C223.9318,35.0941 224.0328,35.2521 224.1218,35.4171 C224.1528,35.4951 224.1698,35.5791 224.1708,35.6641 C224.1688,35.7361 224.1428,35.8061 224.0978,35.8631 C224.0508,35.9281 223.9868,35.9801 223.9128,36.0111 C223.7628,36.0581 223.6078,36.0801 223.4508,36.0751 L223.4508,36.2751 L226.5768,36.2751 L226.5768,36.0751 C226.2868,36.0701 226.0068,35.9701 225.7768,35.7941 C225.4078,35.4261 225.0838,35.0161 224.8128,34.5711 L223.2508,32.2401 L224.6948,30.3981 Z M212.8948,29.5061 C212.6178,29.4481 212.3348,29.4151 212.0508,29.4061 C211.6318,29.3871 211.2228,29.5421 210.9218,29.8341 C210.6318,30.1281 210.4778,30.5301 210.4938,30.9421 C210.4848,31.3861 210.6798,31.8101 211.0238,32.0911 C211.4768,32.4231 212.0348,32.5841 212.5948,32.5431 L212.7178,32.5431 L212.8958,32.5431 L212.8958,29.5061 L212.8948,29.5061 Z M207.7218,36.0841 C208.0628,36.0581 208.3938,35.9561 208.6888,35.7831 C209.0378,35.5191 209.3388,35.1951 209.5748,34.8271 L211.0748,32.7381 C210.5598,32.6541 210.0868,32.4091 209.7188,32.0391 C209.4308,31.7191 209.2748,31.3031 209.2808,30.8741 C209.2728,30.4781 209.4098,30.0931 209.6648,29.7921 C209.9088,29.4971 210.2338,29.2801 210.5998,29.1691 C211.1598,29.0341 211.7348,28.9771 212.3098,29.0001 L214.9648,29.0001 L214.9648,29.1991 L214.6948,29.1991 C214.4628,29.1821 214.2348,29.2681 214.0718,29.4351 C213.9378,29.6991 213.8848,29.9961 213.9218,30.2901 L213.9218,34.9911 C213.8948,35.2591 213.9338,35.5311 214.0338,35.7811 C214.1858,35.9911 214.4368,36.1051 214.6948,36.0821 L214.9688,36.0821 L214.9688,36.2811 L211.8478,36.2811 L211.8478,36.0821 L212.1328,36.0821 C212.3618,36.0981 212.5868,36.0121 212.7448,35.8451 C212.8788,35.5821 212.9308,35.2851 212.8948,34.9911 L212.8948,32.8741 L212.7278,32.8811 L212.5778,32.8811 C212.4638,32.8811 212.3138,32.8811 212.1318,32.8711 L209.6678,36.2751 L207.7218,36.2751 L207.7218,36.0751 L207.7218,36.0841 Z M201.8488,34.9561 C201.8888,35.2721 201.8228,35.5931 201.6608,35.8681 C201.4048,36.0361 201.0998,36.1111 200.7968,36.0841 L200.7968,36.2831 L203.9278,36.2831 L203.9278,36.0841 C203.6238,36.1121 203.3188,36.0361 203.0628,35.8681 C202.9008,35.5931 202.8348,35.2721 202.8758,34.9561 L202.8758,30.3251 C202.8348,30.0081 202.9008,29.6871 203.0628,29.4131 C203.3188,29.2451 203.6238,29.1691 203.9278,29.1971 L203.9278,28.9911 L198.0678,28.9911 L198.0678,29.1911 C198.3718,29.1631 198.6758,29.2391 198.9318,29.4061 C199.0938,29.6811 199.1608,30.0021 199.1198,30.3191 L199.1198,31.8441 C199.1738,32.8341 199.0738,33.8261 198.8248,34.7851 C198.7608,35.1791 198.4558,35.4911 198.0618,35.5611 C197.9018,35.5491 197.7498,35.4881 197.6278,35.3841 C197.5198,35.2921 197.3868,35.2351 197.2458,35.2231 C197.1178,35.2211 196.9948,35.2741 196.9078,35.3681 C196.8168,35.4601 196.7658,35.5841 196.767743,35.7121 C196.7698,35.8871 196.8478,36.0531 196.9828,36.1671 C197.1538,36.3081 197.3728,36.3791 197.5948,36.3661 C198.2198,36.3661 198.7898,36.0081 199.0608,35.4451 C199.5238,34.1621 199.7058,32.7941 199.5928,31.4351 L199.5928,29.3911 L201.8488,29.3911 L201.8488,34.9501 L201.8488,34.9561 Z M187.5018,33.4461 L188.7688,30.5031 L190.0048,33.4461 L187.5048,33.4461 L187.5018,33.4461 Z M190.5948,34.8911 C190.7098,35.1261 190.7828,35.3781 190.8098,35.6381 C190.8088,35.7571 190.7528,35.8691 190.6558,35.9381 C190.4778,36.0421 190.2738,36.0921 190.0678,36.0841 L190.0678,36.2831 L192.9418,36.2831 L192.9418,36.0841 C192.6878,36.0831 192.4418,35.9971 192.2418,35.8391 C191.9988,35.5621 191.8128,35.2401 191.6948,34.8911 L189.1598,28.8331 L188.9718,28.8331 L186.4098,34.8261 C186.2738,35.2101 186.0688,35.5651 185.8028,35.8741 C185.6278,35.9931 185.4238,36.0651 185.2138,36.0831 L185.2138,36.2821 L187.5068,36.2821 L187.5068,36.0831 C187.2668,36.0871 187.0318,36.0311 186.8208,35.9191 C186.7238,35.8511 186.6658,35.7431 186.6628,35.6261 C186.6848,35.4051 186.7468,35.1901 186.8448,34.9911 L187.3398,33.8421 L190.1588,33.8421 L190.5948,34.8911 Z M176.0078,28.9911 L175.9238,30.6991 L176.1228,30.6991 C176.1318,30.4211 176.2138,30.1511 176.3588,29.9161 C176.4728,29.7371 176.6398,29.6001 176.8378,29.5231 C177.0738,29.4621 177.3178,29.4371 177.5618,29.4481 L178.4378,29.4481 L178.4378,35.0121 C178.4638,35.2791 178.4228,35.5481 178.3188,35.7961 C178.1628,35.9961 177.9158,36.1001 177.6638,36.0751 L177.4058,36.0751 L177.4058,36.2751 L180.4948,36.2751 L180.4948,36.0751 L180.2418,36.0751 C180.0098,36.0941 179.7808,36.0121 179.6138,35.8491 C179.4848,35.5901 179.4348,35.2981 179.4688,35.0111 L179.4688,29.4521 L180.4948,29.4521 C180.7468,29.4421 180.9958,29.4931 181.2228,29.6001 C181.4138,29.7061 181.5678,29.8651 181.6668,30.0591 C181.7538,30.2641 181.8078,30.4821 181.8268,30.7051 L182.0268,30.7051 L181.9538,28.9911 L176.0078,28.9911 Z M169.9818,29.3911 C170.2368,29.3781 170.4928,29.4061 170.7388,29.4721 C170.9048,29.5371 171.0468,29.6511 171.1438,29.8001 C171.2708,30.0471 171.3548,30.3151 171.3938,30.5901 L171.6038,30.5901 L171.5228,28.9901 L165.9098,28.9901 L165.9098,29.1901 L166.1688,29.1901 C166.4038,29.1671 166.6378,29.2451 166.8128,29.4051 C166.9388,29.6711 166.9868,29.9671 166.9518,30.2591 L166.9518,34.9911 C166.9648,35.2261 166.9438,35.4611 166.8908,35.6911 C166.8498,35.8041 166.7658,35.8971 166.6568,35.9491 C166.5068,36.0311 166.3388,36.0741 166.1688,36.0731 L165.9098,36.0731 L165.9098,36.2731 L171.5228,36.2731 L172.1508,34.4471 L171.9368,34.4471 C171.7588,34.8121 171.5298,35.1491 171.2558,35.4471 C171.1058,35.6011 170.9218,35.7171 170.7168,35.7851 C170.4228,35.8541 170.1198,35.8831 169.8168,35.8721 L168.5858,35.8721 C168.4458,35.8821 168.3058,35.8611 168.1768,35.8091 C168.1088,35.7731 168.0558,35.7141 168.0258,35.6431 C167.9868,35.4501 167.9718,35.2521 167.9838,35.0551 L167.9838,32.6551 L169.5848,32.6551 C169.8148,32.6421 170.0458,32.6781 170.2608,32.7621 C170.3968,32.8241 170.5078,32.9301 170.5778,33.0621 C170.6568,33.2831 170.7068,33.5111 170.7278,33.7441 L170.9278,33.7441 L170.9278,31.2141 L170.7278,31.2141 C170.7438,31.5341 170.6318,31.8471 170.4178,32.0851 C170.1688,32.2391 169.8748,32.3041 169.5848,32.2721 L167.9838,32.2721 L167.9838,29.3911 L169.9838,29.3911 L169.9818,29.3911 Z M159.8708,29.3911 L159.8708,34.9341 C159.9108,35.2151 159.8608,35.5021 159.7288,35.7531 C159.4578,35.8711 159.1598,35.9151 158.8658,35.8791 L156.1668,35.8791 C156.6418,35.2851 156.9858,34.5961 157.1758,33.8591 C157.5038,32.3921 157.6738,30.8941 157.6858,29.3901 L159.8668,29.3901 L159.8708,29.3911 Z M155.9388,29.1911 C156.1948,29.1891 156.4498,29.2181 156.6988,29.2771 C156.8418,29.3381 156.9568,29.4521 157.0188,29.5941 C157.1238,29.8431 157.1698,30.1141 157.1528,30.3841 C157.1378,31.1551 157.0678,31.9231 156.9438,32.6841 C156.8388,33.5101 156.5838,34.3101 156.1918,35.0451 C155.9338,35.6121 155.4018,36.0041 154.7838,36.0831 L154.7838,38.3761 L154.9668,38.3761 C155.0508,37.8401 155.2898,37.3421 155.6518,36.9411 C156.1208,36.4651 156.7778,36.2231 157.4428,36.2801 L159.3018,36.2801 C159.6718,36.2721 160.0388,36.3281 160.3888,36.4441 C160.7178,36.5751 161.0018,36.8011 161.1998,37.0941 C161.4638,37.4791 161.6398,37.9161 161.7188,38.3761 L161.9008,38.3761 L161.9008,36.0811 C161.5828,36.1461 161.2528,36.0421 161.0308,35.8031 C160.9068,35.3321 160.8608,34.8421 160.8948,34.3561 L160.8948,30.3221 C160.8538,30.0051 160.9208,29.6841 161.0838,29.4091 C161.3388,29.2421 161.6428,29.1671 161.9468,29.1941 L161.9468,28.9911 L155.9368,28.9911 L155.9368,29.1911 L155.9388,29.1911 Z M140.2158,32.7621 C140.3408,32.7411 140.4688,32.7281 140.5968,32.7241 C140.7548,32.7171 140.9438,32.7131 141.1668,32.7131 C141.6068,32.7001 142.0458,32.7771 142.4548,32.9391 C142.7648,33.0591 143.0288,33.2761 143.2068,33.5571 C143.3568,33.8031 143.4358,34.0861 143.4378,34.3741 C143.4428,34.7931 143.2548,35.1921 142.9278,35.4561 C142.5028,35.7751 141.9758,35.9301 141.4448,35.8931 C141.0308,35.8921 140.6178,35.8431 140.2158,35.7491 L140.2158,32.7661 L140.2158,32.7621 Z M140.2158,29.4701 C140.5308,29.3881 140.8558,29.3481 141.1818,29.3521 C141.7258,29.3141 142.2658,29.4741 142.7018,29.8031 C143.0328,30.0681 143.2238,30.4691 143.2228,30.8931 C143.2248,31.1621 143.1528,31.4261 143.0138,31.6561 C142.8748,31.8881 142.6648,32.0701 142.4138,32.1741 C142.0358,32.3051 141.6348,32.3631 141.2348,32.3431 C141.0348,32.3431 140.8428,32.3371 140.6738,32.3241 C140.5208,32.3141 140.3698,32.2951 140.2188,32.2681 L140.2188,29.4681 L140.2158,29.4701 Z M144.0148,31.9181 C144.2338,31.6381 144.3508,31.2931 144.3478,30.9371 C144.3508,30.5211 144.2008,30.1181 143.9238,29.8061 C143.5968,29.4541 143.1668,29.2131 142.6938,29.1221 C142.2288,29.0251 141.7558,28.9811 141.2808,28.9921 L138.1328,28.9921 L138.1328,29.1921 L138.4068,29.1921 C138.6388,29.1751 138.8678,29.2611 139.0298,29.4281 C139.1668,29.6911 139.2208,29.9881 139.1858,30.2821 L139.1858,34.9911 C139.2108,35.2641 139.1688,35.5391 139.0628,35.7921 C138.9098,35.9951 138.6608,36.1041 138.4068,36.0821 L138.1328,36.0821 L138.1328,36.2811 L141.5708,36.2811 C142.1888,36.3091 142.8078,36.2321 143.3998,36.0531 C143.7818,35.9151 144.1108,35.6621 144.3418,35.3291 C144.5618,35.0261 144.6818,34.6631 144.6858,34.2901 C144.6938,33.8301 144.5048,33.3901 144.1648,33.0811 C143.8408,32.8091 143.4498,32.6301 143.0318,32.5641 C143.4208,32.4571 143.7658,32.2321 144.0218,31.9201 L144.0148,31.9181 Z M126.2158,29.9491 C126.7658,30.7701 127.0248,31.7521 126.9508,32.7371 C127.0248,33.6301 126.7888,34.5221 126.2818,35.2621 C125.8718,35.7801 125.2428,36.0761 124.5818,36.0621 C123.9788,36.0801 123.4038,35.8081 123.0348,35.3321 C122.4788,34.5291 122.2108,33.5611 122.2728,32.5861 C122.2078,31.6471 122.4668,30.7131 123.0088,29.9431 C123.3868,29.4661 123.9688,29.1981 124.5768,29.2181 C125.2068,29.1891 125.8118,29.4601 126.2108,29.9481 L126.2158,29.9491 Z M122.2288,29.7771 C121.4428,30.5041 121.0118,31.5371 121.0488,32.6071 C121.0068,33.6281 121.3748,34.6251 122.0708,35.3741 C123.4138,36.7641 125.6298,36.8031 127.0198,35.4601 C127.0578,35.4231 127.0958,35.3851 127.1328,35.3461 C127.8358,34.6041 128.2138,33.6131 128.1808,32.5911 C128.2098,31.5911 127.8358,30.6231 127.1408,29.9031 C126.5108,29.2121 125.6188,28.8211 124.6838,28.8261 C123.7728,28.8101 122.8908,29.1521 122.2288,29.7771 L122.2288,29.7771 Z M112.4108,32.7631 C112.5368,32.7421 112.6648,32.7291 112.7918,32.7251 C112.9488,32.7181 113.1388,32.7141 113.3608,32.7141 C113.8018,32.7011 114.2398,32.7781 114.6498,32.9401 C114.9608,33.0601 115.2238,33.2771 115.4018,33.5581 C115.5508,33.8041 115.6318,34.0861 115.6328,34.3751 C115.6368,34.7941 115.4498,35.1931 115.1228,35.4571 C114.6978,35.7751 114.1718,35.9311 113.6408,35.8941 C113.2268,35.8931 112.8138,35.8441 112.4108,35.7501 L112.4108,32.7661 L112.4108,32.7631 Z M112.4108,29.4711 C112.7258,29.3891 113.0508,29.3491 113.3768,29.3531 C113.9218,29.3151 114.4618,29.4751 114.8968,29.8041 C115.2278,30.0691 115.4198,30.4701 115.4188,30.8941 C115.4208,31.1631 115.3478,31.4271 115.2098,31.6571 C115.0698,31.8891 114.8588,32.0711 114.6088,32.1751 C114.2298,32.3061 113.8298,32.3641 113.4298,32.3441 C113.2298,32.3441 113.0378,32.3381 112.8678,32.3251 C112.7158,32.3151 112.5648,32.2961 112.4148,32.2691 L112.4148,29.4691 L112.4108,29.4711 Z M116.2118,31.9191 C116.4298,31.6391 116.5478,31.2941 116.5448,30.9381 C116.5478,30.5221 116.3958,30.1191 116.1198,29.8071 C115.7938,29.4551 115.3618,29.2141 114.8898,29.1231 C114.4248,29.0261 113.9518,28.9821 113.4768,28.9931 L110.3298,28.9931 L110.3298,29.1931 L110.6038,29.1931 C110.8368,29.1761 111.0648,29.2621 111.2268,29.4291 C111.3628,29.6921 111.4168,29.9901 111.3818,30.2831 L111.3818,34.9911 C111.4068,35.2641 111.3648,35.5391 111.2588,35.7921 C111.1058,35.9951 110.8578,36.1041 110.6038,36.0821 L110.3298,36.0821 L110.3298,36.2811 L113.7668,36.2811 C114.3848,36.3091 115.0038,36.2321 115.5958,36.0531 C115.9768,35.9151 116.3068,35.6621 116.5388,35.3291 C116.7578,35.0261 116.8788,34.6631 116.8818,34.2901 C116.8898,33.8301 116.6998,33.3901 116.3608,33.0811 C116.0368,32.8091 115.6448,32.6301 115.2278,32.5641 C115.6138,32.4561 115.9578,32.2311 116.2118,31.9201 L116.2118,31.9191 Z M100.3588,28.9931 L100.2728,30.7011 L100.4728,30.7011 C100.4818,30.4231 100.5638,30.1541 100.7088,29.9181 C100.8228,29.7391 100.9898,29.6021 101.1868,29.5251 C101.4238,29.4641 101.6678,29.4391 101.9118,29.4501 L102.7948,29.4501 L102.7948,35.0141 C102.8198,35.2811 102.7798,35.5501 102.6768,35.7981 C102.5208,35.9981 102.2728,36.1021 102.0208,36.0771 L101.7628,36.0771 L101.7628,36.2771 L104.8518,36.2771 L104.8518,36.0771 L104.5948,36.0771 C104.3628,36.0961 104.1338,36.0131 103.9668,35.8511 C103.8388,35.5921 103.7878,35.3001 103.8218,35.0131 L103.8218,29.4521 L104.8478,29.4521 C105.0988,29.4421 105.3488,29.4931 105.5758,29.6001 C105.7668,29.7061 105.9208,29.8651 106.0188,30.0591 C106.1068,30.2641 106.1608,30.4821 106.1798,30.7051 L106.3798,30.7051 L106.3038,28.9911 L100.3588,28.9911 L100.3588,28.9931 Z M95.7438,28.8271 C95.7148,28.9761 95.6458,29.1151 95.5438,29.2271 C95.4768,29.2931 95.3858,29.3291 95.2918,29.3271 C95.1778,29.3101 95.0688,29.2701 94.9698,29.2101 C94.4888,28.9591 93.9548,28.8261 93.4118,28.8221 C92.7548,28.8161 92.1078,28.9891 91.5398,29.3221 C90.9658,29.6611 90.5008,30.1541 90.1948,30.7471 C89.8678,31.3621 89.6998,32.0491 89.7058,32.7471 C89.6878,33.5901 89.9478,34.4171 90.4468,35.0981 C91.0958,35.9871 92.1478,36.4911 93.2468,36.4411 C93.8568,36.4581 94.4578,36.3011 94.9818,35.9901 C95.5228,35.6331 95.9648,35.1451 96.2648,34.5711 L96.0948,34.4631 C95.7858,34.9431 95.3798,35.3541 94.9028,35.6691 C94.5188,35.8761 94.0878,35.9791 93.6518,35.9691 C93.1408,35.9781 92.6378,35.8441 92.1988,35.5831 C91.7718,35.3211 91.4388,34.9321 91.2458,34.4701 C91.0238,33.9271 90.9158,33.3441 90.9288,32.7571 C90.9088,32.0751 91.0238,31.3951 91.2648,30.7571 C91.5948,29.8131 92.4958,29.1911 93.4948,29.2161 C94.0308,29.2031 94.5548,29.3761 94.9768,29.7061 C95.4498,30.1291 95.7808,30.6871 95.9278,31.3051 L96.0948,31.3051 L95.9288,28.8301 L95.7438,28.8301 L95.7438,28.8271 Z M83.6088,29.3911 C83.8638,29.3781 84.1198,29.4061 84.3658,29.4721 C84.5318,29.5371 84.6738,29.6511 84.7718,29.8001 C84.8988,30.0471 84.9828,30.3151 85.0218,30.5901 L85.2318,30.5901 L85.1508,28.9901 L79.5378,28.9901 L79.5378,29.1901 L79.7948,29.1901 C80.0308,29.1671 80.2658,29.2451 80.4398,29.4051 C80.5658,29.6711 80.6138,29.9671 80.5798,30.2591 L80.5798,34.9911 C80.5918,35.2261 80.5708,35.4611 80.5178,35.6911 C80.4778,35.8051 80.3938,35.8981 80.2838,35.9491 C80.1338,36.0311 79.9658,36.0741 79.7948,36.0731 L79.5378,36.0731 L79.5378,36.2731 L85.1508,36.2731 L85.7788,34.4471 L85.5638,34.4471 C85.3868,34.8121 85.1568,35.1491 84.8818,35.4471 C84.7328,35.6011 84.5488,35.7171 84.3448,35.7851 C84.0498,35.8541 83.7478,35.8831 83.4448,35.8721 L82.2128,35.8721 C82.0738,35.8821 81.9348,35.8611 81.8048,35.8091 C81.7378,35.7731 81.6848,35.7141 81.6548,35.6431 C81.6148,35.4501 81.5998,35.2521 81.6118,35.0551 L81.6118,32.6551 L83.2118,32.6551 C83.4428,32.6421 83.6738,32.6781 83.8888,32.7621 C84.0248,32.8241 84.1368,32.9291 84.2058,33.0621 C84.2848,33.2831 84.3348,33.5111 84.3558,33.7441 L84.5558,33.7441 L84.5558,31.2141 L84.3558,31.2141 C84.3718,31.5341 84.2598,31.8461 84.0448,32.0851 C83.7968,32.2391 83.5028,32.3051 83.2118,32.2721 L81.6118,32.2721 L81.6118,29.3911 L83.6118,29.3911 L83.6088,29.3911 Z M71.7188,32.9811 C71.4988,32.9901 71.2798,32.9351 71.0898,32.8231 C70.9258,32.7191 70.8088,32.5551 70.7618,32.3671 C70.6958,32.0361 70.6688,31.6981 70.6808,31.3601 L70.6808,30.3501 C70.6698,30.0991 70.6908,29.8471 70.7428,29.6011 C70.7918,29.4611 70.9028,29.3501 71.0428,29.3011 C71.2678,29.2231 71.5058,29.1901 71.7428,29.2011 L71.7428,28.9911 L68.5948,28.9911 L68.5948,29.1911 C68.8198,29.1851 69.0438,29.2171 69.2578,29.2851 C69.3958,29.3281 69.5088,29.4261 69.5698,29.5561 C69.6378,29.8141 69.6648,30.0811 69.6478,30.3461 L69.6478,31.5821 C69.6288,31.9801 69.6628,32.3801 69.7478,32.7711 C69.8458,33.0071 70.0228,33.2021 70.2478,33.3221 C70.5638,33.5021 70.9238,33.5901 71.2868,33.5741 C72.0558,33.5221 72.8068,33.3161 73.4938,32.9671 L73.4938,34.9221 C73.5118,35.1901 73.4848,35.4591 73.4128,35.7171 C73.3528,35.8371 73.2498,35.9311 73.1228,35.9781 C72.9028,36.0501 72.6728,36.0851 72.4408,36.0781 L72.4408,36.2781 L75.5778,36.2781 L75.5778,36.0781 C75.3538,36.0791 75.1308,36.0471 74.9148,35.9841 C74.7848,35.9421 74.6778,35.8501 74.6148,35.7291 C74.5368,35.4681 74.5068,35.1951 74.5258,34.9231 L74.5258,30.3491 C74.5098,30.0861 74.5358,29.8231 74.6008,29.5671 C74.6578,29.4371 74.7668,29.3361 74.9008,29.2911 C75.1188,29.2171 75.3478,29.1841 75.5778,29.1901 L75.5778,28.9911 L72.4448,28.9911 L72.4448,29.1911 C72.6728,29.1861 72.8998,29.2191 73.1158,29.2921 C73.2498,29.3351 73.3608,29.4301 73.4218,29.5571 C73.4888,29.8161 73.5138,30.0831 73.4968,30.3491 L73.4968,32.5411 C72.9428,32.8111 72.3368,32.9611 71.7188,32.9801 L71.7188,32.9811 Z M60.9418,33.4431 L62.2098,30.5011 L63.4448,33.4431 L60.9448,33.4431 L60.9418,33.4431 Z M64.0358,34.8881 C64.1508,35.1231 64.2238,35.3761 64.2508,35.6351 C64.2508,35.7531 64.1938,35.8651 64.0978,35.9351 C63.9198,36.0391 63.7158,36.0891 63.5098,36.0811 L63.5098,36.2801 L66.3838,36.2801 L66.3838,36.0811 C66.1298,36.0801 65.8828,35.9941 65.6838,35.8361 C65.4368,35.5611 65.2478,35.2381 65.1278,34.8881 L62.5948,28.8301 L62.4088,28.8301 L59.8468,34.8231 C59.7108,35.2071 59.5058,35.5621 59.2398,35.8711 C59.0648,35.9901 58.8608,36.0611 58.6488,36.0801 L58.6488,36.2791 L60.9418,36.2791 L60.9418,36.0801 C60.7028,36.0851 60.4668,36.0281 60.2568,35.9161 C60.1608,35.8481 60.1018,35.7401 60.0988,35.6231 C60.1208,35.4021 60.1828,35.1871 60.2818,34.9881 L60.7758,33.8391 L63.5948,33.8391 L64.0358,34.8881 Z M53.7518,35.6181 C53.2628,35.0581 52.8128,34.4661 52.4038,33.8451 C52.1078,33.2651 51.6328,32.7961 51.0498,32.5081 C51.6978,32.1191 52.1698,31.4931 52.3658,30.7621 C52.4678,30.4451 52.5988,30.1381 52.7578,29.8461 C52.8198,29.7381 52.9328,29.6691 53.0578,29.6671 C53.2118,29.6901 53.3598,29.7431 53.4928,29.8221 C53.6478,29.9111 53.8168,29.9691 53.9928,29.9941 C54.1328,29.9951 54.2658,29.9411 54.3658,29.8441 C54.4698,29.7551 54.5298,29.6261 54.5298,29.4891 C54.5298,29.1021 54.2548,28.9091 53.7028,28.9091 C53.4228,28.9021 53.1448,28.9641 52.8948,29.0911 C52.6958,29.1881 52.5268,29.3361 52.4038,29.5211 C52.2478,29.8061 52.1158,30.1031 52.0088,30.4101 C51.8888,30.7461 51.7478,31.0731 51.5868,31.3901 C51.4698,31.5991 51.3198,31.7871 51.1408,31.9461 C50.9968,32.0901 50.8238,32.2031 50.6328,32.2761 C50.3668,32.3371 50.0948,32.3641 49.8218,32.3541 L49.8218,30.3241 C49.7818,30.0071 49.8468,29.6871 50.0068,29.4111 C50.2628,29.2431 50.5688,29.1681 50.8738,29.1961 L50.8738,28.9911 L47.7418,28.9911 L47.7418,29.1911 C48.0468,29.1631 48.3508,29.2391 48.6068,29.4061 C48.7688,29.6811 48.8358,30.0021 48.7948,30.3191 L48.7948,34.9491 C48.8368,35.2671 48.7688,35.5901 48.6038,35.8651 C48.3478,36.0301 48.0448,36.1041 47.7418,36.0771 L47.7418,36.2771 L50.8788,36.2771 L50.8788,36.0771 C50.5738,36.1061 50.2678,36.0301 50.0118,35.8621 C49.8518,35.5861 49.7868,35.2651 49.8268,34.9491 L49.8268,32.7771 C50.0538,32.7651 50.2798,32.8181 50.4768,32.9301 C50.9218,33.3921 51.3238,33.8951 51.6768,34.4301 C52.3328,35.3351 52.7618,35.9491 52.9658,36.2751 L54.8458,36.2751 L54.8458,36.0751 C54.4338,36.0801 54.0388,35.9151 53.7518,35.6181 L53.7518,35.6181 Z"/>
    <path fill="#C61308" d="M224.895,6.4055 C224.699,4.6305 223.805,3.0065 222.411,1.8915 C220.778,0.6225 218.745,-0.0185 216.679,0.0835 C214.179,-0.0185 211.76,0.9835 210.064,2.8235 C208.329,4.8405 207.434,7.4475 207.564,10.1055 C207.42,12.6995 208.311,15.2455 210.04,17.1845 C211.598,18.8905 213.824,19.8315 216.134,19.7595 C217.467,19.8035 218.786,19.4755 219.942,18.8115 C220.711,18.2965 221.397,17.6655 221.974,16.9415 L222.367,19.2775 L224.957,19.2775 L224.957,9.2375 L217.157,9.2375 L217.157,12.3605 L221.495,12.3605 C221.343,13.4985 220.794,14.5465 219.946,15.3195 C219.054,16.0925 217.901,16.4955 216.722,16.4485 C215.389,16.4505 214.106,15.9375 213.142,15.0165 C212.092,14.0615 211.567,12.4355 211.567,10.1385 C211.429,8.3115 211.945,6.4955 213.021,5.0135 C213.931,3.9055 215.301,3.2795 216.734,3.3135 C217.47,3.3035 218.202,3.4465 218.88,3.7325 C220.005,4.2075 220.819,5.2125 221.051,6.4115 L224.895,6.4115 L224.895,6.4055 Z M196.058,0.5625 L187.107,0.5625 L187.107,19.2795 L190.929,19.2795 L190.929,11.9415 L194.748,11.9415 C195.54,11.8525 196.335,12.0675 196.975,12.5415 C197.461,13.2375 197.681,14.0845 197.594,14.9285 L197.619,16.6675 C197.626,17.2085 197.682,17.7475 197.784,18.2795 C197.834,18.5335 197.919,18.8665 198.038,19.2795 L202.354,19.2795 L202.354,18.8095 C201.971,18.5745 201.708,18.1855 201.632,17.7435 C201.545,17.1675 201.512,16.5855 201.532,16.0045 L201.532,14.7465 C201.594,13.7415 201.409,12.7375 200.993,11.8205 C200.571,11.1305 199.922,10.6075 199.158,10.3415 C200.111,10.0515 200.91,9.3965 201.38,8.5195 C201.815,7.7135 202.046,6.8135 202.053,5.8975 C202.064,5.2255 201.947,4.5565 201.706,3.9295 C201.477,3.3585 201.16,2.8265 200.765,2.3555 C200.293,1.7855 199.693,1.3375 199.013,1.0475 C198.067,0.7055 197.066,0.5425 196.061,0.5655 L196.058,0.5625 Z M195.245,3.8125 C195.866,3.7755 196.486,3.8885 197.054,4.1425 C197.823,4.6335 198.241,5.5225 198.127,6.4275 C198.228,7.2915 197.788,8.1285 197.018,8.5345 C196.419,8.7675 195.778,8.8705 195.137,8.8345 L190.929,8.8345 L190.929,3.8165 L195.245,3.8165 L195.245,3.8125 Z M180.49,0.5625 L166.975,0.5625 L166.975,19.2795 L180.952,19.2795 L180.952,15.9145 L170.795,15.9145 L170.795,11.1035 L179.682,11.1035 L179.682,7.8535 L170.795,7.8535 L170.795,3.8795 L180.495,3.8795 L180.495,0.5665 L180.49,0.5625 Z M154.352,0.5625 L145.309,0.5625 L145.309,19.2795 L153.74,19.2795 C154.628,19.2855 155.514,19.2005 156.385,19.0255 C157.822,18.7465 159.073,17.8695 159.824,16.6135 C160.383,15.7195 160.672,14.6845 160.657,13.6305 C160.687,12.6645 160.433,11.7115 159.928,10.8885 C159.413,10.1125 158.652,9.5315 157.767,9.2385 C158.31,8.9815 158.795,8.6185 159.195,8.1705 C159.803,7.3845 160.111,6.4075 160.062,5.4155 C160.088,4.3955 159.788,3.3945 159.203,2.5595 C158.251,1.2645 156.634,0.6005 154.353,0.5665 L154.352,0.5625 Z M153.652,11.0365 C154.291,11.0145 154.926,11.1225 155.522,11.3535 C156.307,11.6985 156.786,12.5045 156.714,13.3595 C156.82,14.3165 156.332,15.2405 155.484,15.6955 C154.882,15.9445 154.234,16.0565 153.584,16.0255 L149.041,16.0255 L149.041,11.0395 L153.647,11.0395 L153.652,11.0365 Z M153.117,3.8125 C153.865,3.7915 154.611,3.8905 155.328,4.1045 C156.005,4.3975 156.411,5.0985 156.328,5.8315 C156.396,6.4775 156.104,7.1085 155.568,7.4755 C154.963,7.8085 154.279,7.9685 153.589,7.9385 L149.041,7.9385 L149.041,3.8165 L153.112,3.8165 L153.117,3.8125 Z M123.859,13.4985 C123.781,15.2815 124.57,16.9925 125.976,18.0915 C127.668,19.2905 129.718,19.8785 131.789,19.7605 C133.799,19.8875 135.788,19.2855 137.389,18.0655 C138.668,17.0255 139.4,15.4555 139.371,13.8065 C139.459,12.3375 138.837,10.9165 137.698,9.9855 C136.728,9.3085 135.624,8.8455 134.462,8.6275 L131.178,7.8535 C130.323,7.6925 129.488,7.4325 128.692,7.0795 C128.117,6.8055 127.759,6.2165 127.781,5.5795 C127.762,4.8875 128.115,4.2395 128.705,3.8795 C129.452,3.4385 130.312,3.2275 131.178,3.2705 C131.98,3.2445 132.778,3.4055 133.507,3.7405 C134.427,4.1865 135.013,5.1175 135.017,6.1405 L138.775,6.1405 C138.806,4.3565 137.983,2.6665 136.559,1.5915 C135.075,0.5215 133.279,-0.0315 131.45,0.0205 C129.495,-0.1195 127.556,0.4725 126.014,1.6835 C124.807,2.7315 124.128,4.2615 124.163,5.8605 C124.044,7.4475 124.761,8.9825 126.055,9.9105 C127.329,10.6215 128.715,11.1075 130.155,11.3455 L132.185,11.7915 C133.092,11.9475 133.969,12.2425 134.785,12.6675 C135.303,12.9565 135.619,13.5095 135.604,14.1025 C135.629,15.1305 134.932,16.0355 133.932,16.2735 C133.188,16.4965 132.414,16.5985 131.637,16.5735 C130.411,16.7025 129.19,16.2795 128.306,15.4185 C127.898,14.8565 127.651,14.1935 127.593,13.5015 L123.861,13.5015 L123.859,13.4985 Z M112.228,0.5625 L103.277,0.5625 L103.277,19.2795 L107.095,19.2795 L107.095,11.9415 L110.914,11.9415 C111.706,11.8525 112.501,12.0675 113.141,12.5415 C113.627,13.2365 113.847,14.0845 113.76,14.9285 L113.785,16.6675 C113.792,17.2085 113.848,17.7475 113.95,18.2795 C114.001,18.5335 114.086,18.8665 114.204,19.2795 L118.52,19.2795 L118.52,18.8095 C118.137,18.5735 117.874,18.1855 117.798,17.7435 C117.711,17.1675 117.678,16.5855 117.698,16.0045 L117.698,14.7465 C117.76,13.7415 117.575,12.7375 117.159,11.8205 C116.737,11.1305 116.088,10.6075 115.324,10.3415 C116.277,10.0515 117.076,9.3965 117.546,8.5195 C117.981,7.7135 118.212,6.8135 118.219,5.8975 C118.23,5.2255 118.113,4.5565 117.872,3.9295 C117.643,3.3585 117.326,2.8265 116.931,2.3555 C116.46,1.7855 115.86,1.3365 115.179,1.0475 C114.233,0.7055 113.232,0.5425 112.227,0.5655 L112.228,0.5625 Z M111.415,3.8125 C112.036,3.7755 112.656,3.8885 113.224,4.1425 C113.994,4.6345 114.411,5.5255 114.295,6.4315 C114.396,7.2955 113.956,8.1325 113.186,8.5385 C112.588,8.7725 111.946,8.8745 111.305,8.8385 L107.095,8.8385 L107.095,3.8165 L111.411,3.8165 L111.415,3.8125 Z M96.661,0.5625 L83.14,0.5625 L83.14,19.2795 L97.118,19.2795 L97.118,15.9145 L86.961,15.9145 L86.961,11.1035 L95.848,11.1035 L95.848,7.8535 L86.961,7.8535 L86.961,3.8795 L96.661,3.8795 L96.661,0.5665 L96.661,0.5625 Z M77.381,6.4915 C77.52,4.8265 76.915,3.1865 75.729,2.0105 C74.481,0.9955 72.901,0.4815 71.295,0.5665 L63.264,0.5665 L63.264,19.2795 L67.149,19.2795 L67.149,12.5505 L71.049,12.5505 C72.726,12.6605 74.388,12.1745 75.742,11.1795 C76.837,10.2655 77.385,8.7035 77.385,6.4945 L77.381,6.4915 Z M73.495,6.5205 C73.565,7.3045 73.294,8.0815 72.752,8.6535 C72.168,9.1325 71.425,9.3735 70.671,9.3265 L67.149,9.3265 L67.149,3.8165 L70.673,3.8165 C71.418,3.7705 72.156,3.9905 72.754,4.4385 C73.301,4.9865 73.573,5.7505 73.495,6.5205 L73.495,6.5205 Z M57.517,6.4915 C57.655,4.8275 57.05,3.1885 55.865,2.0135 C54.619,0.9985 53.04,0.4835 51.435,0.5665 L43.4,0.5665 L43.4,19.2795 L47.285,19.2795 L47.285,12.5505 L51.185,12.5505 C52.862,12.6605 54.524,12.1745 55.878,11.1795 C56.973,10.2655 57.521,8.7035 57.521,6.4945 L57.517,6.4915 Z M53.632,6.5205 C53.702,7.3045 53.431,8.0815 52.889,8.6535 C52.305,9.1325 51.562,9.3735 50.808,9.3265 L47.285,9.3265 L47.285,3.8165 L50.809,3.8165 C51.555,3.7705 52.292,3.9905 52.89,4.4385 C53.437,4.9855 53.71,5.7505 53.633,6.5205 L53.632,6.5205 Z M21.552,12.0685 C21.469,13.6695 21.787,15.2665 22.477,16.7145 C23.634,18.7455 25.832,19.7615 29.068,19.7615 C32.305,19.7615 34.498,18.7455 35.646,16.7145 C36.336,15.2665 36.654,13.6695 36.571,12.0685 L36.571,0.5665 L32.595,0.5665 L32.595,12.0585 C32.653,13.0195 32.498,13.9815 32.139,14.8745 C31.667,15.9235 30.643,16.4475 29.065,16.4475 C27.488,16.4475 26.458,15.9235 25.978,14.8745 C25.62,13.9815 25.464,13.0195 25.523,12.0585 L25.523,0.5665 L21.553,0.5665 L21.553,12.0665 L21.552,12.0685 Z M0,19.2795 L3.847,19.2795 L3.847,13.0205 L5.73,11.1105 L11.495,19.2795 L16.523,19.2795 L8.451,8.2625 L16.13,0.5625 L11.077,0.5625 L3.847,8.2725 L3.847,0.5665 L0,0.5665 L0,19.2795 Z"/>
  </g>
</svg>
