<svg xmlns="http://www.w3.org/2000/svg" xmlns:xlink="http://www.w3.org/1999/xlink" width="24" height="24" viewBox="0 0 24 24">
  <defs>
    <polygon id="варки-b" points="3 7 6 3 6 7 9 7 6 11 6 7"/>
    <filter id="варки-a" width="266.7%" height="225%" x="-83.3%" y="-50%" filterUnits="objectBoundingBox">
      <feOffset dy="1" in="SourceAlpha" result="shadowOffsetOuter1"/>
      <feGaussianBlur in="shadowOffsetOuter1" result="shadowBlurOuter1" stdDeviation="1.5"/>
      <feColorMatrix in="shadowBlurOuter1" values="0 0 0 0 0.733333333   0 0 0 0 0   0 0 0 0 0  0 0 0 0.25 0"/>
    </filter>
    <polygon id="варки-d" points="14 7 17 3 17 7 20 7 17 11 17 7"/>
    <filter id="варки-c" width="266.7%" height="225%" x="-83.3%" y="-50%" filterUnits="objectBoundingBox">
      <feOffset dy="1" in="SourceAlpha" result="shadowOffsetOuter1"/>
      <feGaussianBlur in="shadowOffsetOuter1" result="shadowBlurOuter1" stdDeviation="1.5"/>
      <feColorMatrix in="shadowBlurOuter1" values="0 0 0 0 0.733333333   0 0 0 0 0   0 0 0 0 0  0 0 0 0.25 0"/>
    </filter>
    <polygon id="варки-f" points="3 16 6 12 6 16 9 16 6 20 6 16"/>
    <filter id="варки-e" width="266.7%" height="225%" x="-83.3%" y="-50%" filterUnits="objectBoundingBox">
      <feOffset dy="1" in="SourceAlpha" result="shadowOffsetOuter1"/>
      <feGaussianBlur in="shadowOffsetOuter1" result="shadowBlurOuter1" stdDeviation="1.5"/>
      <feColorMatrix in="shadowBlurOuter1" values="0 0 0 0 0.733333333   0 0 0 0 0   0 0 0 0 0  0 0 0 0.25 0"/>
    </filter>
    <polygon id="варки-h" points="14 16 17 12 17 16 20 16 17 20 17 16"/>
    <filter id="варки-g" width="266.7%" height="225%" x="-83.3%" y="-50%" filterUnits="objectBoundingBox">
      <feOffset dy="1" in="SourceAlpha" result="shadowOffsetOuter1"/>
      <feGaussianBlur in="shadowOffsetOuter1" result="shadowBlurOuter1" stdDeviation="1.5"/>
      <feColorMatrix in="shadowBlurOuter1" values="0 0 0 0 0.733333333   0 0 0 0 0   0 0 0 0 0  0 0 0 0.25 0"/>
    </filter>
  </defs>
  <g fill="none" fill-rule="evenodd">
    <rect width="23" height="23" x=".5" y=".5" stroke="#000"/>
    <circle cx="17.5" cy="21.5" r="1" fill="#000"/>
    <circle cx="19.5" cy="21.5" r="1" fill="#000"/>
    <circle cx="13.5" cy="21.5" r="1" fill="#000"/>
    <circle cx="15.5" cy="21.5" r="1" fill="#000"/>
    <use fill="#000" filter="url(#варки-a)" xlink:href="#варки-b"/>
    <use fill="#B00" xlink:href="#варки-b"/>
    <use fill="#000" filter="url(#варки-c)" xlink:href="#варки-d"/>
    <use fill="#B00" xlink:href="#варки-d"/>
    <use fill="#000" filter="url(#варки-e)" xlink:href="#варки-f"/>
    <use fill="#B00" xlink:href="#варки-f"/>
    <use fill="#000" filter="url(#варки-g)" xlink:href="#варки-h"/>
    <use fill="#B00" xlink:href="#варки-h"/>
  </g>
</svg>
