<svg width="14" height="14" xmlns:xlink="http://www.w3.org/1999/xlink" xmlns="http://www.w3.org/2000/svg"><defs><clipPath id="clip_1"><use xlink:href="#path_1"/></clipPath><path d="M1.999 0h10.002q.098 0 .196.01t.194.028q.096.02.19.048.094.029.185.066.09.038.177.084.087.046.169.1.081.055.157.118.076.062.146.131.069.07.131.146.063.076.117.157.055.082.101.169.046.086.084.177.037.09.066.185.028.094.048.19.019.096.028.194.01.098.01.196v10.002q0 .098-.01.196t-.028.194q-.02.096-.048.19-.029.094-.066.185-.038.09-.084.177-.046.087-.1.169-.056.081-.118.157-.062.076-.131.146-.07.069-.146.131-.076.063-.157.117-.082.055-.169.101-.086.046-.177.084-.09.037-.185.066-.094.028-.19.048-.096.019-.194.028-.098.01-.196.01H1.999q-.098 0-.196-.01t-.194-.028q-.096-.02-.19-.048-.094-.029-.185-.066-.09-.038-.177-.084-.087-.046-.169-.1-.081-.056-.157-.118-.076-.062-.146-.131-.069-.07-.131-.146-.063-.076-.117-.157-.055-.082-.101-.169-.046-.086-.084-.177-.037-.09-.066-.185-.028-.094-.048-.19-.019-.096-.028-.194Q0 12.099 0 12V1.999q0-.098.01-.196t.028-.194q.02-.096.048-.19.029-.094.066-.185.038-.09.084-.177.046-.087.1-.169Q.392.807.455.731.516.655.585.585.655.516.731.454.807.39.888.337.97.282 1.057.236q.086-.046.177-.084.09-.037.185-.066.094-.028.19-.048.096-.019.194-.028Q1.901 0 2 0z" id="path_1"/></defs><g id="Rectangle-5"><g clip-path="url(#clip_1)" id="Rectangle-5"><use xlink:href="#path_1" fill="none" stroke="#B00" stroke-width="2"/></g><g id="Group" transform="translate(4 3)"><path d="M3.679 5.958H2.224a28.786 28.786 0 01-.005-.362c0-.446.078-.814.233-1.102.156-.288.468-.612.936-.972s.747-.596.838-.708a.914.914 0 00.211-.583c0-.295-.124-.548-.373-.759-.25-.21-.585-.316-1.007-.316-.407 0-.747.11-1.02.33-.275.22-.463.554-.566 1.004L0 2.317C.042 1.673.332 1.125.87.675 1.408.225 2.114 0 2.989 0c.92 0 1.652.228 2.195.683.544.456.816.986.816 1.591 0 .335-.1.652-.3.95-.2.3-.626.707-1.28 1.222-.338.266-.548.48-.63.642-.082.163-.119.452-.111.87zM2.224 8V6.482h1.603V8H2.224z" id="?" fill="#B00" fill-rule="evenodd" stroke="none"/></g></g></svg>