<svg xmlns="http://www.w3.org/2000/svg" width="728" height="64" viewBox="0 0 728 64"><path fill="#9E9E9E" d="M727.784 20.728a21.766 21.766 0 00-8.038-14.608 27.976 27.976 0 00-18.55-5.85 27.586 27.586 0 00-21.406 8.866 33.62 33.62 0 00-8.09 23.565 31.78 31.78 0 008.012 22.909 25.627 25.627 0 0019.72 8.333c4.314.142 8.583-.92 12.324-3.068a29.157 29.157 0 006.576-6.052l1.271 7.56h8.382v-32.49h-25.242v10.106h14.038a15.788 15.788 0 01-5.012 9.576 15.016 15.016 0 01-10.433 3.653 16.737 16.737 0 01-11.586-4.634c-3.398-3.09-5.097-8.352-5.097-15.786a25.022 25.022 0 014.706-16.585 15.084 15.084 0 0112.015-5.501 17.28 17.28 0 016.945 1.356 11.854 11.854 0 017.026 8.67h12.44v-.02zm-93.32-18.909h-28.966v60.57h12.369V38.643h12.358a10.194 10.194 0 017.207 1.942 11.443 11.443 0 012.003 7.724l.081 5.628a29.74 29.74 0 00.534 5.216c.162.822.437 1.9.822 3.236h13.967v-1.52a5.054 5.054 0 01-2.336-3.45 30.622 30.622 0 01-.324-5.628v-4.07c.2-3.253-.398-6.502-1.744-9.47a11.33 11.33 0 00-5.938-4.786 12.178 12.178 0 007.19-5.896 18.155 18.155 0 002.178-8.485 16.983 16.983 0 00-1.123-6.369 18.837 18.837 0 00-3.045-5.093 14.995 14.995 0 00-5.67-4.233 26.326 26.326 0 00-9.553-1.56l-.01-.01zm-2.63 10.518c2.01-.12 4.016.246 5.854 1.068a7.64 7.64 0 013.472 7.394 6.812 6.812 0 01-3.589 6.819 14.54 14.54 0 01-6.087.97h-13.617V12.35h13.967v-.013zm-47.75-10.518H540.35v60.57h45.231V51.5h-32.87V35.931h28.76V25.414h-28.76v-12.86h31.391V1.831l-.016-.013zm-84.584 0h-29.265v60.57h27.284c2.874.02 5.74-.255 8.56-.821a16.668 16.668 0 0011.129-7.806 17.726 17.726 0 002.695-9.653 16.017 16.017 0 00-2.359-8.874 13.475 13.475 0 00-6.993-5.34 14.52 14.52 0 004.621-3.455 13.486 13.486 0 002.806-8.916 15.42 15.42 0 00-2.78-9.242c-3.08-4.191-8.314-6.34-15.695-6.45l-.003-.013zm-2.266 33.895a15.277 15.277 0 016.052 1.026 6.495 6.495 0 013.857 6.492 7.628 7.628 0 01-3.98 7.56 14.294 14.294 0 01-6.149 1.067h-14.701V35.724h14.905l.016-.01zm-1.731-23.377c2.42-.068 4.835.252 7.155.945a5.425 5.425 0 013.236 5.588 5.722 5.722 0 01-2.46 5.32 12.178 12.178 0 01-6.404 1.499h-14.717v-13.34h13.174l.016-.012zm-94.682 31.345a17.876 17.876 0 006.85 14.863 29.622 29.622 0 0018.812 5.401 27.086 27.086 0 0018.122-5.485 17.374 17.374 0 006.414-13.783 14.822 14.822 0 00-5.414-12.365 27.004 27.004 0 00-10.472-4.395l-10.627-2.504a36.53 36.53 0 01-8.045-2.505 5.179 5.179 0 01-2.948-4.854 6.243 6.243 0 012.99-5.502 14.341 14.341 0 018.003-1.97 16.757 16.757 0 017.537 1.52 8.668 8.668 0 014.886 7.767h12.162a18.046 18.046 0 00-7.171-14.72A26.967 26.967 0 00425.386.064a25.532 25.532 0 00-17.591 5.382 17.396 17.396 0 00-5.99 13.517 14.771 14.771 0 006.122 13.106 40.909 40.909 0 0013.268 4.644l6.57 1.444a28.766 28.766 0 018.414 2.834 5.172 5.172 0 012.65 4.644 7.044 7.044 0 01-5.41 7.026 23.25 23.25 0 01-7.428.97 13.436 13.436 0 01-10.78-3.737 12.313 12.313 0 01-2.306-6.204h-12.078l-.006-.01zm-37.64-41.863h-28.966v60.57h12.356V38.643h12.359a10.194 10.194 0 017.206 1.942 11.438 11.438 0 012.004 7.724l.08 5.628a29.74 29.74 0 00.534 5.216c.165.822.44 1.9.822 3.236h13.967v-1.52a5.06 5.06 0 01-2.336-3.45 30.621 30.621 0 01-.324-5.628v-4.07a19.943 19.943 0 00-1.744-9.47 11.33 11.33 0 00-5.938-4.786 12.178 12.178 0 007.19-5.896 18.155 18.155 0 002.178-8.485 16.983 16.983 0 00-1.123-6.369 18.837 18.837 0 00-3.045-5.093 14.912 14.912 0 00-5.67-4.233 26.326 26.326 0 00-9.552-1.56l.003-.01zm-2.63 10.518c2.01-.12 4.016.246 5.854 1.068a7.638 7.638 0 013.466 7.407 6.812 6.812 0 01-3.589 6.818 14.48 14.48 0 01-6.087.971H346.57V12.35h13.967l.013-.013zM312.805 1.819H269.05v60.57h45.234V51.5h-32.869V35.931h28.76V25.414h-28.76v-12.86h31.39V1.818zm-62.392 19.187a18.277 18.277 0 00-5.346-14.5 20.98 20.98 0 00-14.349-4.674H204.73V62.39h12.572V40.614h12.621a23.096 23.096 0 0015.187-4.437c3.544-2.958 5.317-8.013 5.317-15.161l-.013-.01zm-12.575.094a8.89 8.89 0 01-2.405 6.903 9.67 9.67 0 01-6.734 2.178H217.3V12.35h11.404c2.411-.15 4.8.563 6.735 2.012a8.345 8.345 0 012.398 6.738zm-51.707-.094a18.279 18.279 0 00-5.346-14.491 20.981 20.981 0 00-14.336-4.683h-26.002V62.39h12.572V40.614h12.621a23.096 23.096 0 0015.187-4.437c3.544-2.958 5.317-8.013 5.317-15.161l-.013-.01zm-12.572.094a8.89 8.89 0 01-2.405 6.903 9.67 9.67 0 01-6.734 2.178h-11.4V12.35h11.403a10.18 10.18 0 016.735 2.012 8.357 8.357 0 012.404 6.738h-.003zM69.745 39.054a31.198 31.198 0 002.993 15.035c3.744 6.572 10.857 9.86 21.33 9.86 10.474 0 17.571-3.288 21.286-9.86a31.198 31.198 0 002.994-15.035V1.832H105.48v37.19a21.033 21.033 0 01-1.476 9.112c-1.527 3.395-4.841 5.09-9.948 5.09-5.103 0-8.436-1.695-9.99-5.09a21.03 21.03 0 01-1.472-9.112V1.832H69.748v37.215l-.003.007zM0 62.389h12.45V42.135l6.093-6.181 18.656 26.435H53.47L27.348 26.737 52.198 1.82H35.846L12.45 26.77V1.833H0V62.39z" opacity=".119"/></svg>