<svg xmlns="http://www.w3.org/2000/svg" width="151" height="55"><path fill-rule="evenodd" d="M18.233 48.305h78.526v-.689H18.233v.69zm98.01 0h15.606v-.689h-15.606v.69zM4.837 41.481V8.216c0-2.408-.224-4.068-.67-4.973C3.701 2.33 2.72 1.602 1.223 1.05V.816h14.51v.234c-1.514.552-2.496 1.27-2.941 2.165-.448.884-.671 2.553-.671 5v27.972c0 5.235-1.38 9.198-4.138 11.898-1.36 1.292-2.622 2.292-3.787 3.01-1.175.728-2.574 1.428-4.196 2.107v-.28c3.224-2.012 4.837-5.828 4.837-11.441zm24.892-16.074c-3.545 0-5.322 2.272-5.322 6.817 0 2.069.408 3.575 1.213 4.526.816.943 1.807 1.418 2.972 1.418 1.175 0 2.38-.33 3.623-.99V25.806c-1-.263-1.826-.399-2.486-.399zM17.53 34.021c0-3.088 1.088-5.507 3.273-7.235 2.186-1.74 5.983-2.66 11.412-2.777v-4.012c0-4.827-1.952-7.235-5.856-7.235-1.535 0-3.128.437-4.768 1.321 1.184.185 2.135.592 2.874 1.232.738.631 1.106 1.41 1.106 2.332 0 .913-.35 1.73-1.048 2.438-.7.708-1.534 1.067-2.505 1.067-.982 0-1.807-.339-2.487-1.018-.67-.691-1.01-1.546-1.01-2.594 0-1.971 1.098-3.623 3.282-4.944 2.187-1.33 4.788-1.991 7.809-1.991 6.322 0 9.48 3.43 9.48 10.285v12.675c-.02 2.118.252 3.505.825 4.147.573.65 1.573 1.04 3.02 1.195v.234c-.612.582-1.583 1.134-2.904 1.65-2.845 1.097-4.991 1.029-6.458-.203-.719-.642-1.156-1.535-1.302-2.672-2.71 2.515-5.331 3.786-7.857 3.807-1.932 0-3.564-.68-4.894-2.05-1.331-1.36-1.992-3.244-1.992-5.652zm30.137 3.817c-2.165-2.603-3.244-6.294-3.244-11.061 0-4.779 1.234-8.663 3.69-11.684 2.466-2.991 5.673-4.488 9.635-4.488 2.214 0 4.06.495 5.516 1.477 1.467.97 2.196 2.157 2.196 3.555 0 1.407-.36 2.504-1.079 3.301-.728.798-1.62 1.204-2.679 1.224-1.06 0-1.963-.34-2.71-1.02-.72-.669-1.069-1.534-1.049-2.564 0-1.884.815-3.292 2.447-4.233-.437-.224-1.078-.34-1.933-.34-4.768 0-7.157 4.127-7.157 12.383 0 4.205.777 7.302 2.33 9.313 1.544 2.01 3.536 3.01 5.963 3.01 2.429 0 4.556-.912 6.382-2.73l.281.234c-2.253 4.984-5.691 7.487-10.296 7.508-3.369.02-6.137-1.272-8.293-3.885zm49.551 3.185h-6.934c-1.905 0-3.205-.29-3.904-.882-.7-.585-1.787-2.195-3.274-4.838l-5.399-9.681 4.01-4.886c2.215-2.682 3.322-4.556 3.322-5.643 0-1.555-1.165-2.7-3.496-3.438v-.35h14.45v.29a13.439 13.439 0 00-4.515 2.022c-1.427.97-3.05 2.485-4.865 4.554l-3.448 3.788 7.653 12.49c1.388 2.214 2.535 3.739 3.447 4.574.904.835 1.894 1.428 2.953 1.769v.23zm-17.424 0H67.15v-.231c1.204-.554 1.962-1.236 2.272-2.05.311-.816.466-2.652.466-5.517V7.275c0-1.76-.066-3.113-.2-4.058l.777.845 6.474 7.045v22.118c-.019 2.885.137 4.721.476 5.517.33.796 1.126 1.475 2.38 2.05v.23zm16.511-29.718h13.121v.29c-.933.263-1.584.642-1.961 1.137-.388.496-.564 1.312-.545 2.448 0 1.137.428 3.37 1.283 6.71l3.924 14.938 3.63-13.277c1.079-3.525 1.554-6.245 1.42-8.138-.138-1.904-1.05-3.176-2.76-3.817v-.291h9.557v.235c-1.038.493-2.02 1.592-2.923 3.3-.912 1.71-2.07 5.002-3.477 9.877l-5.71 19.92c-1.981 6.915-4.787 10.372-8.41 10.372-1.254 0-2.293-.369-3.128-1.106-.836-.74-1.253-1.593-1.253-2.584 0-.98.33-1.845 1-2.603.66-.739 1.515-1.108 2.555-1.108 1.047 0 1.903.36 2.563 1.078.661.72 1.03 1.642 1.108 2.779 1.446-1.215 2.71-3.604 3.788-7.168l.903-3.302-4.128.039-5.012-17.599c-1.398-4.817-2.408-7.886-3.01-9.196-.612-1.301-1.458-2.206-2.535-2.7v-.234zm31.37-2.798c0-.62-.33-1.38-.99-2.272-.662-.892-.991-1.807-.991-2.739 0-.922.349-1.737 1.048-2.446.7-.7 1.603-1.05 2.7-1.05 1.08 0 1.972.388 2.69 1.165.72.777 1.08 1.778 1.08 2.993 0 1.777-.837 3.67-2.497 5.661-1.67 1.99-3.497 3.612-5.487 4.867l-.223-.117c1.777-2.254 2.67-4.274 2.67-6.062zm12.81 31.41c1.273 0 2.34-.379 3.215-1.136.875-.749 1.31-1.826 1.31-3.224 0-1.419-.456-2.586-1.368-3.488-.903-.902-2.011-1.68-3.293-2.32a96.031 96.031 0 01-3.933-2.07c-1.282-.748-2.389-1.787-3.292-3.137-.913-1.34-1.38-2.943-1.399-4.806-.02-2.71.903-4.905 2.757-6.594 1.866-1.692 4.168-2.537 6.916-2.537 2.001 0 4.273.486 6.818 1.446v7.355h-.233c-2.594-4.663-5.09-6.994-7.498-6.994-1.116 0-2.06.35-2.815 1.048-.759.7-1.147 1.673-1.167 2.914 0 2.1 1.603 3.924 4.808 5.469 1.35.64 2.68 1.349 4.011 2.126 1.34.777 2.466 1.875 3.37 3.273.903 1.41 1.369 3.079 1.388 5.013.02 2.893-.932 5.205-2.865 6.904-1.923 1.71-4.38 2.564-7.361 2.564-2.972 0-5.691-.602-8.129-1.806l-.117-8.527h.291c2.76 5.68 5.624 8.527 8.586 8.527z"/></svg>