<svg xmlns="http://www.w3.org/2000/svg" width="227" height="39" viewBox="0 0 227 39"><g fill="none" fill-rule="evenodd"><path fill="#2C2D32" d="M224.695 30.398c.205-.277.433-.536.683-.773a1.97 1.97 0 01.53-.333c.16-.062.33-.096.5-.1v-.2h-2.582v.2c.172-.007.344.01.51.05.082.032.15.087.2.158a.32.32 0 01.064.2.493.493 0 01-.051.22 2.815 2.815 0 01-.276.4l-1.295 1.638-1.117-1.67a1.212 1.212 0 01-.258-.58.349.349 0 01.159-.273c.179-.103.383-.152.588-.14v-.204h-3.368v.2a1.8 1.8 0 01.94.282c.395.312.732.691.995 1.12l1.433 2.1-1.718 2.17c-.202.266-.432.51-.688.725-.193.154-.406.28-.634.376-.151.062-.31.1-.472.113v.2h2.584v-.2a1.02 1.02 0 01-.554-.129.346.346 0 01-.145-.284.53.53 0 01.048-.219c.085-.147.182-.286.29-.416l1.526-1.955 1.235 1.87c.11.15.21.308.3.473a.692.692 0 01.049.247.337.337 0 01-.073.2.44.44 0 01-.185.147c-.15.047-.305.07-.462.064v.2h3.126v-.2a1.356 1.356 0 01-.8-.28 6.51 6.51 0 01-.964-1.224l-1.562-2.33 1.444-1.843zm-11.8-.892a4.875 4.875 0 00-.844-.1 1.523 1.523 0 00-1.13.428c-.29.294-.443.696-.427 1.108-.01.444.186.868.53 1.15a2.368 2.368 0 001.57.451h.302v-3.037h-.001zm-5.173 6.578c.34-.026.672-.128.967-.3.349-.265.65-.589.886-.957l1.5-2.089a2.473 2.473 0 01-1.356-.699 1.706 1.706 0 01-.438-1.165 1.624 1.624 0 01.384-1.082c.244-.295.569-.512.935-.623a6.231 6.231 0 011.71-.169h2.655v.2h-.27a.79.79 0 00-.623.235 1.48 1.48 0 00-.15.855v4.701c-.027.268.012.54.112.79.152.21.403.324.66.301h.275v.2h-3.121v-.2h.285a.768.768 0 00.612-.237c.134-.263.186-.56.15-.854v-2.117l-.167.007h-.15c-.114 0-.264 0-.446-.01l-2.464 3.404h-1.946v-.2.01zm-5.873-1.128a1.44 1.44 0 01-.188.912 1.356 1.356 0 01-.864.216v.2h3.13v-.2a1.35 1.35 0 01-.864-.216 1.434 1.434 0 01-.187-.912v-4.63a1.431 1.431 0 01.187-.913 1.35 1.35 0 01.865-.216v-.206h-5.86v.2c.304-.028.608.048.864.215.162.275.229.596.188.913v1.525a9.618 9.618 0 01-.295 2.941.94.94 0 01-.763.776.754.754 0 01-.434-.177.678.678 0 00-.382-.16.452.452 0 00-.338.144.48.48 0 00-.14.344c.002.175.08.341.215.455.17.141.39.212.612.2.625 0 1.195-.359 1.466-.922a9.497 9.497 0 00.532-4.01v-2.044h2.256v5.565zm-14.347-1.51l1.267-2.943 1.236 2.943h-2.503zm3.093 1.445c.115.235.188.487.215.747a.37.37 0 01-.154.3 1.081 1.081 0 01-.588.146v.2h2.874v-.2a1.135 1.135 0 01-.7-.245 2.795 2.795 0 01-.547-.948l-2.535-6.058h-.188l-2.562 5.993a3.286 3.286 0 01-.607 1.048 1.238 1.238 0 01-.59.21v.198h2.294v-.199a1.41 1.41 0 01-.686-.164.368.368 0 01-.158-.293 1.86 1.86 0 01.182-.635l.495-1.149h2.819l.436 1.05zm-14.587-5.9l-.084 1.708h.199a1.59 1.59 0 01.236-.783.993.993 0 01.479-.393c.236-.06.48-.086.724-.075h.876v5.564a1.62 1.62 0 01-.12.784.737.737 0 01-.654.28h-.258v.2h3.089v-.2h-.253a.805.805 0 01-.628-.227 1.489 1.489 0 01-.145-.838v-5.559h1.026c.252-.01.5.041.728.148.19.106.345.265.444.46.087.204.14.422.16.645h.2l-.073-1.714h-5.946zm-6.026.4c.255-.013.51.015.757.081a.853.853 0 01.405.328c.127.247.21.515.25.79h.21l-.081-1.6h-5.613v.2h.259a.834.834 0 01.644.215c.126.266.174.562.139.854v4.732c.013.235-.008.47-.061.7a.46.46 0 01-.234.258c-.15.082-.318.125-.488.124h-.26v.2h5.614l.628-1.826h-.214a4.19 4.19 0 01-.681 1 1.34 1.34 0 01-.54.338 3.4 3.4 0 01-.9.087h-1.23a.919.919 0 01-.41-.063.335.335 0 01-.15-.166 2.274 2.274 0 01-.042-.588v-2.4h1.6c.23-.013.462.023.677.107a.678.678 0 01.317.3c.079.221.129.45.15.682h.2v-2.53h-.2c.016.32-.096.633-.31.871a1.311 1.311 0 01-.833.187h-1.601v-2.88h2-.002zm-10.111 0v5.543c.04.281-.01.568-.142.82a1.658 1.658 0 01-.863.125h-2.7a5.39 5.39 0 001.01-2.02c.328-1.467.498-2.965.51-4.469h2.18l.005.001zm-3.932-.2c.256-.002.51.027.76.086a.612.612 0 01.32.317c.105.25.15.52.134.79a16.263 16.263 0 01-.21 2.3 6.854 6.854 0 01-.751 2.361c-.258.567-.79.96-1.408 1.038v2.293h.183a2.785 2.785 0 01.685-1.435 2.246 2.246 0 011.79-.66h1.86a3.23 3.23 0 011.087.163c.329.131.613.357.81.65.265.385.44.822.52 1.282h.182v-2.295a.932.932 0 01-.87-.278 4.466 4.466 0 01-.136-1.447v-4.034a1.43 1.43 0 01.189-.913c.255-.167.559-.242.863-.215v-.203h-6.01v.2h.002zm-15.723 3.571c.125-.02.253-.034.38-.038.159-.007.348-.01.57-.01a3.24 3.24 0 011.289.225c.31.12.574.337.752.618.15.246.229.53.23.817a1.37 1.37 0 01-.51 1.082 2.215 2.215 0 01-1.482.437 5.46 5.46 0 01-1.23-.144v-2.987zm0-3.292c.315-.082.64-.122.966-.118a2.262 2.262 0 011.52.451c.33.265.522.666.52 1.09.003.27-.07.533-.208.763a1.263 1.263 0 01-.6.518 3.127 3.127 0 01-1.18.17c-.2 0-.391-.007-.56-.02a4.096 4.096 0 01-.455-.056v-2.8l-.003.002zm3.799 2.448c.219-.28.336-.625.333-.98a1.684 1.684 0 00-.424-1.132 2.264 2.264 0 00-1.23-.684 6.208 6.208 0 00-1.413-.13h-3.148v.2h.274a.788.788 0 01.623.236c.137.263.19.56.156.854v4.71c.025.272-.017.547-.123.8a.742.742 0 01-.656.29h-.274v.2h3.438a5.467 5.467 0 001.829-.229c.382-.138.71-.39.942-.724.22-.303.34-.666.344-1.039.008-.46-.181-.9-.521-1.209a2.326 2.326 0 00-1.133-.517c.389-.107.734-.332.99-.644l-.007-.002zm-17.8-1.969c.55.821.81 1.803.736 2.788a3.898 3.898 0 01-.67 2.525 2.11 2.11 0 01-1.7.8 1.887 1.887 0 01-1.546-.73 4.34 4.34 0 01-.762-2.746 4.1 4.1 0 01.736-2.643 1.92 1.92 0 011.568-.725 1.992 1.992 0 011.634.73l.005.001zm-3.986-.172a3.682 3.682 0 00-1.18 2.83 3.835 3.835 0 001.022 2.767 3.5 3.5 0 005.062-.028 3.825 3.825 0 001.048-2.755c.029-1-.345-1.968-1.04-2.688a3.3 3.3 0 00-2.457-1.077 3.489 3.489 0 00-2.455.951zm-9.818 2.986c.126-.02.254-.034.38-.038.158-.007.348-.01.57-.01a3.23 3.23 0 011.289.225c.31.12.574.337.752.618.149.246.23.528.23.817.005.42-.182.818-.51 1.082a2.217 2.217 0 01-1.481.437 5.476 5.476 0 01-1.23-.144v-2.987zm0-3.292c.315-.082.64-.122.966-.118a2.259 2.259 0 011.52.451c.33.265.523.666.522 1.09.002.27-.071.533-.21.763-.14.232-.35.414-.6.518a3.13 3.13 0 01-1.18.17c-.2 0-.391-.007-.561-.02a4.06 4.06 0 01-.453-.056v-2.8l-.004.002zm3.8 2.448c.219-.28.337-.625.334-.98a1.69 1.69 0 00-.425-1.132 2.264 2.264 0 00-1.23-.684 6.208 6.208 0 00-1.413-.13h-3.147v.2h.274a.787.787 0 01.623.236c.136.263.19.561.155.854v4.708c.025.273-.017.548-.123.801a.74.74 0 01-.655.29h-.274v.2h3.437a5.467 5.467 0 001.829-.229c.38-.138.71-.39.943-.724a1.8 1.8 0 00.343-1.039c.008-.46-.182-.9-.521-1.209a2.33 2.33 0 00-1.133-.517 1.95 1.95 0 00.984-.644zm-15.852-2.926l-.086 1.708h.2c.009-.278.09-.547.236-.783a.995.995 0 01.478-.393c.237-.06.48-.086.725-.075h.883v5.564c.025.267-.015.536-.118.784a.738.738 0 01-.656.28h-.258v.2h3.089v-.2h-.257a.808.808 0 01-.628-.227 1.497 1.497 0 01-.145-.838v-5.56h1.026c.25-.01.5.04.728.147.19.106.345.265.443.46.088.204.142.422.16.645h.2l-.075-1.714h-5.945v.002zm-4.615-.166a.83.83 0 01-.2.4.349.349 0 01-.252.1.868.868 0 01-.322-.117 3.422 3.422 0 00-1.558-.388 3.636 3.636 0 00-1.872.5 3.535 3.535 0 00-1.345 1.425 4.182 4.182 0 00-.49 2 3.84 3.84 0 00.742 2.351 3.282 3.282 0 002.8 1.343c.61.017 1.21-.14 1.735-.45a3.822 3.822 0 001.283-1.42l-.17-.108c-.31.48-.715.891-1.192 1.206-.384.207-.815.31-1.251.3a2.749 2.749 0 01-1.453-.386 2.383 2.383 0 01-.953-1.113 4.276 4.276 0 01-.317-1.713 5.23 5.23 0 01.336-2 2.3 2.3 0 012.23-1.54c.536-.014 1.06.16 1.482.49.473.422.804.98.95 1.598h.168l-.166-2.475h-.185v-.003zm-12.135.564c.255-.013.51.015.757.081a.86.86 0 01.406.328c.127.247.21.515.25.79h.21l-.081-1.6h-5.613v.2h.257a.834.834 0 01.645.215c.126.266.174.562.14.854v4.732c.012.235-.01.47-.062.7a.447.447 0 01-.234.258c-.15.082-.318.125-.49.124h-.256v.2h5.613l.628-1.826h-.215a4.136 4.136 0 01-.682 1 1.34 1.34 0 01-.537.338 3.405 3.405 0 01-.9.087h-1.232a.919.919 0 01-.408-.063.337.337 0 01-.15-.166 2.231 2.231 0 01-.043-.588v-2.4h1.6c.23-.013.462.023.677.107a.669.669 0 01.317.3c.079.221.129.45.15.682h.2v-2.53h-.2a1.21 1.21 0 01-.311.871c-.248.154-.542.22-.833.187h-1.6v-2.88h2-.003zm-11.89 3.59a1.148 1.148 0 01-.63-.158.757.757 0 01-.327-.456 4.359 4.359 0 01-.081-1.007v-1.01c-.011-.25.01-.503.062-.749a.49.49 0 01.3-.3c.225-.078.463-.11.7-.1v-.21h-3.148v.2c.225-.006.449.026.663.094a.512.512 0 01.312.271c.068.258.095.525.078.79v1.236c-.02.398.015.798.1 1.19.098.235.275.43.5.55.316.18.676.268 1.039.252a5.726 5.726 0 002.207-.607v1.955c.018.268-.01.537-.081.795a.53.53 0 01-.29.261c-.22.072-.45.107-.682.1v.2h3.137v-.2a2.33 2.33 0 01-.663-.094.518.518 0 01-.3-.255 2.264 2.264 0 01-.09-.806V30.35c-.015-.263.01-.526.076-.782a.504.504 0 01.3-.276c.218-.074.447-.107.677-.1v-.2h-3.133v.2a1.96 1.96 0 01.67.101.512.512 0 01.307.265c.067.26.092.526.075.792v2.192c-.554.27-1.16.42-1.778.44zm-10.777.462l1.268-2.942 1.235 2.942h-2.503zm3.094 1.445c.115.235.188.488.215.747 0 .118-.057.23-.153.3a1.081 1.081 0 01-.588.146v.2h2.874v-.2a1.133 1.133 0 01-.7-.245 2.757 2.757 0 01-.556-.948l-2.533-6.058h-.186l-2.562 5.993a3.286 3.286 0 01-.607 1.048c-.175.12-.38.19-.591.21v.198h2.293v-.199a1.395 1.395 0 01-.685-.164.371.371 0 01-.158-.293 1.84 1.84 0 01.183-.635l.494-1.149h2.819l.44 1.05zm-10.284.73a16.455 16.455 0 01-1.348-1.773 3.025 3.025 0 00-1.354-1.337 2.918 2.918 0 001.316-1.746c.102-.317.233-.624.392-.916a.353.353 0 01.3-.179 1.2 1.2 0 01.435.155c.155.09.324.147.5.172a.529.529 0 00.373-.15.466.466 0 00.164-.355c0-.387-.275-.58-.827-.58a1.691 1.691 0 00-.808.182 1.243 1.243 0 00-.491.43 5.883 5.883 0 00-.395.89 8.41 8.41 0 01-.422.98 2.141 2.141 0 01-.446.555 1.453 1.453 0 01-.508.33 3.115 3.115 0 01-.811.078v-2.03c-.04-.317.025-.637.185-.913.256-.168.562-.243.867-.215v-.205h-3.132v.2c.305-.028.609.048.865.215.162.275.229.596.188.913v4.63a1.42 1.42 0 01-.191.916 1.366 1.366 0 01-.862.212v.2h3.137v-.2a1.348 1.348 0 01-.867-.215 1.456 1.456 0 01-.185-.913v-2.172c.227-.012.453.041.65.153.445.462.847.965 1.2 1.5.656.905 1.085 1.52 1.289 1.845h1.88v-.2a1.495 1.495 0 01-1.094-.457z"/><path fill="#C61308" d="M224.895 6.405a6.726 6.726 0 00-2.484-4.514 8.645 8.645 0 00-5.732-1.808c-2.5-.102-4.919.9-6.615 2.74a10.39 10.39 0 00-2.5 7.282 9.82 9.82 0 002.476 7.08 7.92 7.92 0 006.094 2.575 7.17 7.17 0 003.808-.949 9.01 9.01 0 002.032-1.87l.393 2.337h2.59V9.238h-7.8v3.123h4.338a4.879 4.879 0 01-1.549 2.958 4.64 4.64 0 01-3.224 1.13 5.172 5.172 0 01-3.58-1.433c-1.05-.954-1.575-2.58-1.575-4.877a7.732 7.732 0 011.454-5.125 4.661 4.661 0 013.713-1.7 5.34 5.34 0 012.146.418 3.663 3.663 0 012.171 2.68h3.844v-.006zM196.058.563h-8.951V19.28h3.822v-7.338h3.819a3.15 3.15 0 012.227.6c.486.697.706 1.543.619 2.387l.025 1.74a9.19 9.19 0 00.165 1.611c.05.255.135.587.254 1h4.316v-.47a1.562 1.562 0 01-.722-1.066 9.462 9.462 0 01-.1-1.738v-1.258a6.162 6.162 0 00-.539-2.927 3.501 3.501 0 00-1.835-1.479 3.763 3.763 0 002.222-1.821 5.61 5.61 0 00.673-2.622 5.248 5.248 0 00-.347-1.968 5.82 5.82 0 00-.941-1.575 4.634 4.634 0 00-1.752-1.307 8.135 8.135 0 00-2.952-.483l-.003-.002zm-.813 3.25a3.866 3.866 0 011.809.33 2.361 2.361 0 011.073 2.285 2.105 2.105 0 01-1.109 2.107 4.493 4.493 0 01-1.881.3h-4.208V3.817h4.316v-.003zM180.49.563h-13.515V19.28h13.977v-3.364h-10.157v-4.811h8.887v-3.25h-8.887V3.88h9.7V.567l-.005-.004zm-26.138 0h-9.043V19.28h8.431a12.98 12.98 0 002.645-.253 5.15 5.15 0 003.439-2.413 5.478 5.478 0 00.833-2.982 4.95 4.95 0 00-.729-2.742 4.164 4.164 0 00-2.161-1.65 4.487 4.487 0 001.428-1.069 4.167 4.167 0 00.867-2.755 4.764 4.764 0 00-.859-2.856c-.952-1.295-2.569-1.959-4.85-1.993l-.001-.003zm-.7 10.475a4.72 4.72 0 011.87.316 2.007 2.007 0 011.192 2.007 2.357 2.357 0 01-1.23 2.335 4.417 4.417 0 01-1.9.33h-4.543V11.04h4.606l.005-.003zm-.535-7.225a7.039 7.039 0 012.211.292 1.676 1.676 0 011 1.728 1.768 1.768 0 01-.76 1.644 3.763 3.763 0 01-1.979.463h-4.548V3.817h4.071l.005-.005zM123.859 13.5a5.524 5.524 0 002.117 4.592 9.153 9.153 0 005.813 1.67 8.37 8.37 0 005.6-1.695 5.369 5.369 0 001.982-4.26 4.58 4.58 0 00-1.673-3.82 8.344 8.344 0 00-3.236-1.359l-3.284-.774a11.288 11.288 0 01-2.486-.773 1.6 1.6 0 01-.911-1.5 1.93 1.93 0 01.924-1.7 4.432 4.432 0 012.473-.61c.802-.026 1.6.135 2.329.47a2.679 2.679 0 011.51 2.4h3.758a5.577 5.577 0 00-2.216-4.548A8.333 8.333 0 00131.45.02a7.89 7.89 0 00-5.436 1.663 5.376 5.376 0 00-1.851 4.177 4.564 4.564 0 001.892 4.05 12.641 12.641 0 004.1 1.435l2.03.446a8.889 8.889 0 012.6.877c.518.289.834.841.819 1.434a2.177 2.177 0 01-1.672 2.171 7.184 7.184 0 01-2.295.3 4.152 4.152 0 01-3.331-1.155 3.805 3.805 0 01-.713-1.916h-3.732l-.002-.004zM112.228.562h-8.951V19.28h3.818v-7.338h3.819a3.15 3.15 0 012.227.6c.486.695.706 1.543.619 2.387l.025 1.74a9.19 9.19 0 00.165 1.611c.051.255.136.587.254 1h4.316v-.47a1.564 1.564 0 01-.722-1.066 9.462 9.462 0 01-.1-1.738v-1.258a6.162 6.162 0 00-.539-2.927 3.501 3.501 0 00-1.835-1.479 3.763 3.763 0 002.222-1.821 5.61 5.61 0 00.673-2.622 5.248 5.248 0 00-.347-1.968 5.82 5.82 0 00-.941-1.575 4.608 4.608 0 00-1.752-1.307 8.135 8.135 0 00-2.952-.483l.001-.002zm-.813 3.25a3.866 3.866 0 011.809.33 2.36 2.36 0 011.071 2.29 2.105 2.105 0 01-1.109 2.107 4.475 4.475 0 01-1.881.3h-4.21V3.816h4.316l.004-.003zM96.661.563H83.14V19.28h13.978v-3.364H86.961v-4.811h8.887v-3.25h-8.887V3.88h9.7V.563zm-19.28 5.93a5.648 5.648 0 00-1.652-4.481A6.483 6.483 0 0071.295.566h-8.031V19.28h3.885v-6.73h3.9a7.137 7.137 0 004.693-1.37c1.095-.915 1.643-2.476 1.643-4.685l-.004-.003zm-3.886.029a2.747 2.747 0 01-.743 2.132 2.988 2.988 0 01-2.081.673h-3.522v-5.51h3.524a3.148 3.148 0 012.081.623c.547.548.819 1.311.741 2.082zm-15.978-.03a5.648 5.648 0 00-1.652-4.477 6.484 6.484 0 00-4.43-1.447H43.4V19.28h3.885v-6.73h3.9a7.137 7.137 0 004.693-1.37c1.095-.915 1.643-2.476 1.643-4.685l-.004-.003zm-3.885.03a2.747 2.747 0 01-.743 2.132 2.988 2.988 0 01-2.081.673h-3.523v-5.51h3.524a3.146 3.146 0 012.081.623 2.58 2.58 0 01.743 2.082h-.001zm-32.08 5.548a9.64 9.64 0 00.925 4.646c1.157 2.03 3.355 3.047 6.591 3.047 3.237 0 5.43-1.017 6.578-3.047a9.64 9.64 0 00.925-4.646V.566h-3.976V12.06a6.5 6.5 0 01-.456 2.816c-.472 1.049-1.496 1.573-3.074 1.573-1.577 0-2.607-.524-3.087-1.574a6.499 6.499 0 01-.455-2.816V.566h-3.97v11.5l-.001.002zM0 19.279h3.847v-6.258l1.883-1.91 5.765 8.168h5.028L8.451 8.262l7.679-7.7h-5.053l-7.23 7.71V.567H0V19.28z"/></g></svg>