<svg xmlns="http://www.w3.org/2000/svg" xmlns:xlink="http://www.w3.org/1999/xlink" width="24" height="24" viewBox="0 0 24 24"><defs><filter id="варки-a" width="266.7%" height="225%" x="-83.3%" y="-50%" filterUnits="objectBoundingBox"><feOffset dy="1" in="SourceAlpha" result="shadowOffsetOuter1"/><feGaussianBlur in="shadowOffsetOuter1" result="shadowBlurOuter1" stdDeviation="1.5"/><feColorMatrix in="shadowBlurOuter1" values="0 0 0 0 0.733333333 0 0 0 0 0 0 0 0 0 0 0 0 0 0.25 0"/></filter><filter id="варки-c" width="266.7%" height="225%" x="-83.3%" y="-50%" filterUnits="objectBoundingBox"><feOffset dy="1" in="SourceAlpha" result="shadowOffsetOuter1"/><feGaussianBlur in="shadowOffsetOuter1" result="shadowBlurOuter1" stdDeviation="1.5"/><feColorMatrix in="shadowBlurOuter1" values="0 0 0 0 0.733333333 0 0 0 0 0 0 0 0 0 0 0 0 0 0.25 0"/></filter><filter id="варки-e" width="266.7%" height="225%" x="-83.3%" y="-50%" filterUnits="objectBoundingBox"><feOffset dy="1" in="SourceAlpha" result="shadowOffsetOuter1"/><feGaussianBlur in="shadowOffsetOuter1" result="shadowBlurOuter1" stdDeviation="1.5"/><feColorMatrix in="shadowBlurOuter1" values="0 0 0 0 0.733333333 0 0 0 0 0 0 0 0 0 0 0 0 0 0.25 0"/></filter><filter id="варки-g" width="266.7%" height="225%" x="-83.3%" y="-50%" filterUnits="objectBoundingBox"><feOffset dy="1" in="SourceAlpha" result="shadowOffsetOuter1"/><feGaussianBlur in="shadowOffsetOuter1" result="shadowBlurOuter1" stdDeviation="1.5"/><feColorMatrix in="shadowBlurOuter1" values="0 0 0 0 0.733333333 0 0 0 0 0 0 0 0 0 0 0 0 0 0.25 0"/></filter><path id="варки-b" d="M3 7l3-4v4h3l-3 4V7z"/><path id="варки-d" d="M14 7l3-4v4h3l-3 4V7z"/><path id="варки-f" d="M3 16l3-4v4h3l-3 4v-4z"/><path id="варки-h" d="M14 16l3-4v4h3l-3 4v-4z"/></defs><g fill="none" fill-rule="evenodd"><path stroke="#000" d="M.5.5h23v23H.5z"/><circle cx="17.5" cy="21.5" r="1" fill="#000"/><circle cx="19.5" cy="21.5" r="1" fill="#000"/><circle cx="13.5" cy="21.5" r="1" fill="#000"/><circle cx="15.5" cy="21.5" r="1" fill="#000"/><use fill="#000" filter="url(#варки-a)" xlink:href="#варки-b"/><use fill="#B00" xlink:href="#варки-b"/><use fill="#000" filter="url(#варки-c)" xlink:href="#варки-d"/><use fill="#B00" xlink:href="#варки-d"/><use fill="#000" filter="url(#варки-e)" xlink:href="#варки-f"/><use fill="#B00" xlink:href="#варки-f"/><use fill="#000" filter="url(#варки-g)" xlink:href="#варки-h"/><use fill="#B00" xlink:href="#варки-h"/></g></svg>