<svg xmlns="http://www.w3.org/2000/svg" xmlns:xlink="http://www.w3.org/1999/xlink" width="24" height="24"><defs><filter id="a" width="266.7%" height="225%" x="-83.3%" y="-50%" filterUnits="objectBoundingBox"><feOffset dy="1" in="SourceAlpha" result="shadowOffsetOuter1"/><feGaussianBlur in="shadowOffsetOuter1" result="shadowBlurOuter1" stdDeviation="1.5"/><feColorMatrix in="shadowBlurOuter1" values="0 0 0 0 0.733333333 0 0 0 0 0 0 0 0 0 0 0 0 0 0.25 0"/></filter><filter id="c" width="266.7%" height="225%" x="-83.3%" y="-50%" filterUnits="objectBoundingBox"><feOffset dy="1" in="SourceAlpha" result="shadowOffsetOuter1"/><feGaussianBlur in="shadowOffsetOuter1" result="shadowBlurOuter1" stdDeviation="1.5"/><feColorMatrix in="shadowBlurOuter1" values="0 0 0 0 0.733333333 0 0 0 0 0 0 0 0 0 0 0 0 0 0.25 0"/></filter><filter id="e" width="266.7%" height="225%" x="-83.3%" y="-50%" filterUnits="objectBoundingBox"><feOffset dy="1" in="SourceAlpha" result="shadowOffsetOuter1"/><feGaussianBlur in="shadowOffsetOuter1" result="shadowBlurOuter1" stdDeviation="1.5"/><feColorMatrix in="shadowBlurOuter1" values="0 0 0 0 0.733333333 0 0 0 0 0 0 0 0 0 0 0 0 0 0.25 0"/></filter><filter id="g" width="266.7%" height="225%" x="-83.3%" y="-50%" filterUnits="objectBoundingBox"><feOffset dy="1" in="SourceAlpha" result="shadowOffsetOuter1"/><feGaussianBlur in="shadowOffsetOuter1" result="shadowBlurOuter1" stdDeviation="1.5"/><feColorMatrix in="shadowBlurOuter1" values="0 0 0 0 0.733333333 0 0 0 0 0 0 0 0 0 0 0 0 0 0.25 0"/></filter><path id="b" d="M3 7l3-4v4h3l-3 4V7z"/><path id="d" d="M14 7l3-4v4h3l-3 4V7z"/><path id="f" d="M3 16l3-4v4h3l-3 4v-4z"/><path id="h" d="M14 16l3-4v4h3l-3 4v-4z"/></defs><g fill="none" fill-rule="evenodd"><path stroke="#000" d="M.5.5h23v23H.5z"/><circle cx="17.5" cy="21.5" r="1" fill="#000"/><circle cx="19.5" cy="21.5" r="1" fill="#000"/><circle cx="13.5" cy="21.5" r="1" fill="#000"/><circle cx="15.5" cy="21.5" r="1" fill="#000"/><use fill="#000" filter="url(#a)" xlink:href="#b"/><use fill="#B00" xlink:href="#b"/><use fill="#000" filter="url(#c)" xlink:href="#d"/><use fill="#B00" xlink:href="#d"/><use fill="#000" filter="url(#e)" xlink:href="#f"/><use fill="#B00" xlink:href="#f"/><use fill="#000" filter="url(#g)" xlink:href="#h"/><use fill="#B00" xlink:href="#h"/></g></svg>