<svg xmlns="http://www.w3.org/2000/svg" xmlns:xlink="http://www.w3.org/1999/xlink" width="25" height="24"><defs><filter id="a" width="155.6%" height="242.9%" x="-27.8%" y="-57.1%" filterUnits="objectBoundingBox"><feOffset dy="1" in="SourceAlpha" result="shadowOffsetOuter1"/><feGaussianBlur in="shadowOffsetOuter1" result="shadowBlurOuter1" stdDeviation="1.5"/><feComposite in="shadowBlurOuter1" in2="SourceAlpha" operator="out" result="shadowBlurOuter1"/><feColorMatrix in="shadowBlurOuter1" values="0 0 0 0 0.733333333 0 0 0 0 0 0 0 0 0 0 0 0 0 0.251311189 0"/></filter><filter id="c" width="600%" height="600%" x="-250%" y="-200%" filterUnits="objectBoundingBox"><feOffset dy="1" in="SourceAlpha" result="shadowOffsetOuter1"/><feGaussianBlur in="shadowOffsetOuter1" result="shadowBlurOuter1" stdDeviation="1.5"/><feColorMatrix in="shadowBlurOuter1" values="0 0 0 0 0.733333333 0 0 0 0 0 0 0 0 0 0 0 0 0 0.404747596 0"/></filter><circle id="d" cx="3" cy="3" r="1"/><path id="b" d="M3 9h18v7H3z"/></defs><g fill="none" fill-rule="evenodd" transform="translate(1)"><path stroke="#000" d="M.5.5h23v21H.5z"/><path fill="#000" d="M0 5h24v1H0zm0 12h24v1H0z"/><use fill="#000" filter="url(#a)" xlink:href="#b"/><path fill="#D0021B" fill-opacity=".149" stroke="#B00" stroke-linejoin="square" d="M3.5 9.5h17v6h-17z"/><path fill="#000" d="M2 7h20v1H2z"/><circle cx="14" cy="3" r="1" fill="#000"/><circle cx="11" cy="3" r="1" fill="#000"/><circle cx="6" cy="3" r="1" fill="#000"/><use fill="#000" filter="url(#c)" xlink:href="#d"/><use fill="#B00" xlink:href="#d"/><circle cx="20" cy="3" r="1" fill="#000"/><circle cx="5.5" cy="19.5" r="1" fill="#000"/><circle cx="18.5" cy="19.5" r="1" fill="#000"/><circle cx="17" cy="3" r="1" fill="#000"/><path fill="#B00" fill-opacity=".25" d="M3 11h18v1H3zm0 2h18v1H3z"/><path fill="#000" d="M3 23h4v1H3zm14 0h4v1h-4z"/></g></svg>