<svg xmlns="http://www.w3.org/2000/svg" xmlns:xlink="http://www.w3.org/1999/xlink" width="24" height="24" viewBox="0 0 24 24"><defs><filter id="посудомойка-a" width="162.5%" height="600%" x="-31.2%" y="-200%" filterUnits="objectBoundingBox"><feOffset dy="1" in="SourceAlpha" result="shadowOffsetOuter1"/><feGaussianBlur in="shadowOffsetOuter1" result="shadowBlurOuter1" stdDeviation="1.5"/><feColorMatrix in="shadowBlurOuter1" values="0 0 0 0 0.733333333 0 0 0 0 0 0 0 0 0 0 0 0 0 0.404747596 0"/></filter><path id="посудомойка-b" d="M4 2h16v2H4z"/></defs><g fill="none" fill-rule="evenodd"><path stroke="#000" d="M23.434 8.5l-1.875 15H2.44L.566 8.5h22.868zM2.5 8.5h19v-8h-19z"/><use fill="#000" filter="url(#посудомойка-a)" xlink:href="#посудомойка-b"/><use fill="#B00" xlink:href="#посудомойка-b"/><path fill="#B00" fill-opacity=".25" d="M20 7h-1v-.001h-1V7h-1v-.001h-1V7h-1v-.001H9V7H8v-.001H7V7H6v-.001H5V7H4V4h16v3zM6 5H5v.999h1V5zm2 0H7v.999h1V5zm7 0H9v.999h6V5zm2 0h-1v.999h1V5zm2 0h-1v.999h1V5z"/></g></svg>