<svg xmlns="http://www.w3.org/2000/svg" xmlns:xlink="http://www.w3.org/1999/xlink" width="24" height="24" viewBox="0 0 24 24">
  <defs>
    <rect id="посудомойка-b" width="16" height="2" x="4" y="2"/>
    <filter id="посудомойка-a" width="162.5%" height="600%" x="-31.2%" y="-200%" filterUnits="objectBoundingBox">
      <feOffset dy="1" in="SourceAlpha" result="shadowOffsetOuter1"/>
      <feGaussianBlur in="shadowOffsetOuter1" result="shadowBlurOuter1" stdDeviation="1.5"/>
      <feColorMatrix in="shadowBlurOuter1" values="0 0 0 0 0.733333333   0 0 0 0 0   0 0 0 0 0  0 0 0 0.404747596 0"/>
    </filter>
  </defs>
  <g fill="none" fill-rule="evenodd">
    <path stroke="#000" d="M23.4336089,8.5 L21.5586089,23.5 L2.44139111,23.5 L0.566391109,8.5 L23.4336089,8.5 Z"/>
    <rect width="19" height="8" x="2.5" y=".5" stroke="#000" transform="matrix(1 0 0 -1 0 9)"/>
    <use fill="#000" filter="url(#посудомойка-a)" xlink:href="#посудомойка-b"/>
    <use fill="#B00" xlink:href="#посудомойка-b"/>
    <path fill="#B00" fill-opacity=".25" d="M20,7 L19,7 L19,6.999 L18,6.999 L18,7 L17,7 L17,6.999 L16,6.999 L16,7 L15,7 L15,6.999 L9,6.999 L9,7 L8,7 L8,6.999 L7,6.999 L7,7 L6,7 L6,6.999 L5,6.999 L5,7 L4,7 L4,4 L20,4 L20,7 Z M6,5 L5,5 L5,5.999 L6,5.999 L6,5 Z M8,5 L7,5 L7,5.999 L8,5.999 L8,5 Z M15,5 L9,5 L9,5.999 L15,5.999 L15,5 Z M17,5 L16,5 L16,5.999 L17,5.999 L17,5 Z M19,5 L18,5 L18,5.999 L19,5.999 L19,5 Z"/>
  </g>
</svg>
